<svg xmlns="http://www.w3.org/2000/svg" xmlns:xlink="http://www.w3.org/1999/xlink" viewBox="0 0 4000 1941.43"><defs><style>.cls-1{mask:url(#mask);}.cls-17,.cls-2{mix-blend-mode:multiply;}.cls-2{fill:url(#linear-gradient);}.cls-3{isolation:isolate;}.cls-4{opacity:0.07;}.cls-5{fill:#666;}.cls-6{fill:#444;}.cls-7{fill:#b2b2b2;}.cls-8{fill:#fff;}.cls-9{fill:#7b7b7b;}.cls-10{fill:#303030;}.cls-11{fill:#828282;}.cls-12{fill:#5b5b5b;}.cls-13,.cls-14{fill:#eee;}.cls-14{fill-rule:evenodd;}.cls-15{mask:url(#mask-2);}.cls-16{mix-blend-mode:screen;fill:url(#linear-gradient-2);}.cls-17{fill:#898989;}.cls-18{fill:#aeaeae;}.cls-19{fill:#717171;}.cls-20{fill:#515151;}.cls-21{fill:#7f7f7f;}.cls-22{filter:url(#luminosity-noclip);}</style><filter id="luminosity-noclip" x="1.9" y="-9835.18" width="4003.43" height="32766" filterUnits="userSpaceOnUse" color-interpolation-filters="sRGB"><feFlood flood-color="#fff" result="bg"/><feBlend in="SourceGraphic" in2="bg"/></filter><mask id="mask" x="1.9" y="-9835.18" width="4003.43" height="32766" maskUnits="userSpaceOnUse"><g class="cls-22"/></mask><linearGradient id="linear-gradient" x1="2003.61" y1="1621.75" x2="2003.61" y2="2077.4" gradientUnits="userSpaceOnUse"><stop offset="0" stop-color="#fff"/><stop offset="1"/></linearGradient><mask id="mask-2" x="1.9" y="1699.01" width="4003.43" height="322.16" maskUnits="userSpaceOnUse"><g class="cls-1"><rect class="cls-2" x="1.9" y="1699.01" width="4003.43" height="322.16"/></g></mask><linearGradient id="linear-gradient-2" x1="2003.61" y1="1621.75" x2="2003.61" y2="2077.4" gradientUnits="userSpaceOnUse"><stop offset="0" stop-color="#dedede"/><stop offset="0.31" stop-color="#a3a3a3"/><stop offset="0.63" stop-color="#6e6e6e"/><stop offset="0.87" stop-color="#4c4c4c"/><stop offset="1" stop-color="#404040"/></linearGradient></defs><g class="cls-3"><g id="Layer_1" data-name="Layer 1"><g class="cls-4"><path class="cls-5" d="M-261.56,0H-973.39V249c123,117.88,673.9,603.48,1179,746,4.89-8.37,312.7-182.89,419.73-213.49Z"/><path class="cls-6" d="M206.33,991.94l-4.43,2.23,4.33-5.79h0l.1,3.56L656.24,764.81l-9.51-8.21L190.2,982.27l-4.21,2.1-.12,3.68h0l-5,55.56h0c8.77,6.48,9.44,6.79,9.44,6.79l9.83,0-5.72,2.51,14.05,10.34-.1-3.26Z"/><polygon class="cls-6" points="-167.02 956.79 -182.46 857.59 382.91 567.66 403.73 588.38 -144.67 869.6 -131.55 953.97 -167.02 956.79"/><polygon class="cls-6" points="-521.29 734.25 -545.03 624.04 80.18 300.84 111.19 328.62 -491 640.16 -471.9 728.82 -521.29 734.25"/><polygon class="cls-7" points="-136.39 954.45 -151.82 855.25 384.13 580.68 406.33 599.66 -114.04 867.26 -100.91 951.64 -136.39 954.45"/><polygon class="cls-7" points="-499.88 737.65 -523.62 627.43 79.98 315.29 109.33 343.33 -469.58 643.56 -450.49 732.22 -499.88 737.65"/><polygon class="cls-8" points="406.33 599.66 384.13 580.68 382.98 567.9 403.96 586.7 406.33 599.66"/><polygon class="cls-8" points="109.33 343.33 79.98 315.29 80.18 300.84 111.19 328.62 109.33 343.33"/><path class="cls-8" d="M208.43,1063.23l-14.05-10.34-11.64-8.57-2-.71q-39.37-14-77.85-29.24l-23.83-9.65c-4-1.59-7.89-3.29-11.83-4.94l-11.8-5-11.79-5L32,984.67,20.3,979.54,14.46,977l-5.79-2.63-23.13-10.53c-7.67-3.56-15.27-7.19-22.91-10.78-3.81-1.81-7.66-3.58-11.43-5.42l-11.34-5.53-11.33-5.52-5.67-2.77L-82.76,931l-22.45-11.29-22.25-11.49c-3.7-1.93-7.43-3.82-11.1-5.78l-11-5.86-11-5.86-5.51-2.93-5.45-3-21.82-11.93c-7.25-4-14.42-8.07-21.64-12.1l-10.8-6.07-10.71-6.16c-7.12-4.11-14.32-8.16-21.38-12.34q-42.62-24.81-84.06-50.66t-81.94-52.47q-40.47-26.62-79.93-54t-78.06-55.48q-38.62-28-76.28-56.74t-74.59-57.91q-36.86-29.24-72.91-59-72.11-59.5-141-121-13.46-12-26.77-24.16v25.69c3.09,2.81,6.17,5.61,9.27,8.41q68.72,61.94,140.78,121.92,36,30,72.86,59.48t74.58,58.39q37.71,28.93,76.31,57.27t78.14,56q39.6,27.63,80.08,54.63t82.16,53.07q41.7,26.05,84.4,51.31c7.09,4.23,14.32,8.34,21.48,12.51l10.76,6.24,10.86,6.15c7.25,4.09,14.46,8.22,21.75,12.28l22,12.11,5.49,3,5.54,3,11.08,5.95,11.08,6c3.7,2,7.46,3.9,11.18,5.86l22.41,11.68,22.63,11.48,5.65,2.87,5.72,2.81,11.42,5.63,11.44,5.62c3.8,1.87,7.68,3.68,11.52,5.52,7.72,3.66,15.39,7.36,23.13,11L-6.37,991.3-.53,994l5.9,2.62,11.81,5.23,11.8,5.24,11.92,5.1,11.93,5.09c4,1.68,7.93,3.42,12,5l24.13,9.88q48.51,19.42,98.58,36.91h0l21.29,6.71Z"/><path class="cls-7" d="M215.85,998.74,626.7,789.63l-9.42-9.42L199.72,989.06l-4.21,2.11-.12,3.68h0l-5.12,55.55q-39.37-14-77.85-29.24l-23.83-9.66c-4-1.58-7.89-3.28-11.83-4.93l-11.8-5-11.79-5-11.68-5.13-11.67-5.13L24,983.77l-5.78-2.63L-4.94,970.61c-7.67-3.56-15.27-7.19-22.92-10.78-3.8-1.81-7.65-3.58-11.42-5.42l-11.34-5.53L-62,943.35l-5.67-2.76-5.61-2.82-22.45-11.29L-117.94,915c-3.7-1.93-7.43-3.82-11.11-5.78l-11-5.86-11-5.86-5.51-2.94-5.45-3-21.82-11.93c-7.25-4-14.43-8.07-21.64-12.11l-10.8-6.06L-227,855.32c-7.12-4.11-14.32-8.17-21.38-12.34q-42.62-24.81-84.06-50.66t-81.94-52.47q-40.47-26.62-79.93-54.05t-78.06-55.48q-38.62-28-76.28-56.74t-74.59-57.91q-36.85-29.23-72.91-59-72.12-59.51-141-121-18.27-16.33-36.29-32.82v25.71q9.36,8.55,18.79,17.06,68.72,61.94,140.78,121.92,36,30,72.86,59.48t74.58,58.39q37.71,28.92,76.31,57.26t78.14,56q39.58,27.63,80.08,54.63t82.16,53.07q41.7,26.05,84.4,51.31c7.09,4.23,14.32,8.34,21.48,12.51l10.76,6.24,10.86,6.15c7.25,4.09,14.46,8.22,21.75,12.28l21.95,12.1,5.49,3,5.54,3,11.08,6,11.08,5.95c3.7,2,7.46,3.91,11.18,5.87l22.41,11.68,22.62,11.48,5.66,2.87,5.71,2.81,11.43,5.62,11.43,5.63c3.81,1.87,7.69,3.68,11.53,5.52,7.71,3.66,15.38,7.36,23.13,11L3.15,998.1,9,1000.78l5.9,2.62,11.8,5.23,11.81,5.24,11.92,5.1,11.93,5.09c4,1.68,7.93,3.42,12,5L98.45,1039Q147,1058.41,197,1075.89h0l21.28,6.7-.46-15.82Z"/><path class="cls-9" d="M195.94,1066.4c-444.82-133.77-988-581.13-1169.33-738V823.17c345.67,266.74,1355,508.4,1355,508.4l39.26-28Z"/><path class="cls-9" d="M2001.12,1699.66-165,1713l-808.35,15.76V847.28s1117.22,751.25,2974.51,615.27"/><path class="cls-7" d="M532.37,1387.6,516.52,1385c12,16.29,39.48,45.32,99.55,79.2l7.37-6.67C572.71,1428.91,545.94,1403.76,532.37,1387.6Z"/><polygon class="cls-8" points="267.57 1699.65 87.01 1583.92 27.55 1699.65 267.57 1699.65"/><polygon class="cls-10" points="-146.48 1550.09 -136.96 1699.65 27.55 1699.65 87.01 1583.92 81.96 1580.68 -146.48 1550.09"/><polygon class="cls-7" points="431.88 1699.65 229.5 1438.76 335.51 1454.1 476.49 1702.66 431.88 1699.65"/><polygon class="cls-7" points="1292.07 1699.65 1105.2 1516.94 1174.21 1515.24 1328.88 1699.65 1292.07 1699.65"/><polygon class="cls-8" points="374.66 1539.04 323.49 1458.31 321.71 1534.37 374.66 1539.04"/><polygon class="cls-11" points="278.28 1455.76 308.42 1532.81 323.2 1534.79 324.09 1459.15 278.28 1455.76"/><path class="cls-8" d="M310.56,1187.21c-41.11-13.22-140.43-46.4-209.17-71.67-34.38-12.6-71.34-26.67-110.07-42s-79.18-32-120.56-49.74-83.64-36.7-126-56.58S-340,926.55-381.57,905s-82.53-43.8-121.93-66.43-77.31-45.62-113-68.62S-685.77,724-716.65,701.61s-59-44.24-84.16-64.89l-9.35-7.65-9-7.6-8.75-7.42-4.29-3.64-4.14-3.66q-8.24-7.26-16-14.14c-5.14-4.62-10-9.17-14.79-13.54l-7-6.47c-2.28-2.13-4.45-4.26-6.63-6.33l-12.52-12c-2-1.91-3.91-3.84-5.78-5.71l-5.47-5.5-10.2-10.24-16.7-17.55-3.5-3.69-3.11-3.45-5.4-6c-6.46-7.15-16.84-20.71-16.84-20.71l.6,63.31,7.32,7.19,10.79,10.39,5.79,5.57c2,1.9,4,3.85,6.11,5.79l13.21,12.15c2.29,2.1,4.59,4.26,7,6.41l7.41,6.54c5,4.41,10.16,9,15.56,13.67l16.83,14.26,4.35,3.68,4.49,3.67,9.17,7.47,9.38,7.64,9.78,7.68c26.3,20.74,55.6,42.65,87.72,65s66.83,45.19,103.73,68,75.93,45.58,116.44,67.89,82.46,44.22,125.09,65.37,86,41.54,129.2,61,86.28,37.89,128.43,55.16,83.28,33.46,122.66,48.3,76.9,28.46,111.8,40.64c69.78,24.4,128.91,43.24,170.61,55.94,20.84,6.36,37.34,11.17,48.62,14.41l12.92,3.66Z"/><path class="cls-8" d="M-63.77,964c3.07,7.71,7,16.22,11.68,25.34s10.19,18.81,16.34,28.93c3.14,5,6.34,10.2,9.85,15.38,1.75,2.6,3.43,5.26,5.29,7.88l5.56,8c1.84,2.68,3.81,5.34,5.79,8l5.95,8.09C.85,1070.9,5,1076.36,9.3,1081.78,18,1092.62,27,1103.5,36.41,1114.21s19,21.29,28.73,31.58c4.92,5.11,9.7,10.23,14.59,15.2l14.55,14.67c4.82,4.78,9.67,9.43,14.36,14,2.36,2.28,4.65,4.55,7,6.76l7,6.53c4.59,4.29,9,8.49,13.36,12.5L148.68,1227c8.08,7.43,15.8,14.07,22.54,20,3.38,3,6.52,5.75,9.47,8.29l8.19,7c9.87,8.4,15.52,13.19,15.52,13.19l11.23-6.43-14.27-13.76-7.52-7.25c-2.72-2.65-5.58-5.55-8.69-8.63-6.16-6.17-13.23-13.08-20.6-20.78l-11.59-12c-4-4.15-8-8.49-12.13-12.92l-6.31-6.74c-2.13-2.28-4.19-4.63-6.33-7-4.23-4.71-8.61-9.5-13-14.42s-8.64-10-13.06-15-8.64-10.33-13-15.55c-8.64-10.51-17.21-21.26-25.43-32.12S47.56,1081,40.06,1070.17c-3.74-5.44-7.27-10.89-10.83-16.24l-5.07-8c-1.67-2.66-3.36-5.29-4.9-7.94s-3.12-5.26-4.67-7.85-2.94-5.2-4.39-7.75c-2.93-5.09-5.54-10.14-8.11-15-5-9.82-9.46-19.14-13-27.81q-1.44-3.45-2.73-6.75Q-42.19,959.19-70.48,945C-68.85,950.47-66.62,956.84-63.77,964Z"/><path class="cls-7" d="M394.51,1315.46l-17.76-3.75-9.53-2-9.88-2.28-43.52-10-24-5.54c-8.25-1.91-16.76-3.81-25.37-6L210,1272.22l-14.35-3.59-7.29-1.82c-2.44-.61-4.9-1.22-7.33-1.89l-29.84-8.05-30.85-8.32-15.79-4.26c-2.64-.72-5.32-1.41-8-2.17l-8-2.31-65.51-19c-2.79-.81-5.61-1.6-8.4-2.45l-8.36-2.59-16.84-5.23L-44.62,1200l-17.3-5.37-17.24-5.69L-114,1177.37c-23.48-7.56-46.71-16-70.28-24.26l-17.69-6.23c-2.95-1.05-5.93-2.05-8.85-3.15l-8.77-3.28-35.2-13.16-17.65-6.6-4.42-1.65-4.36-1.73-8.73-3.45L-324.86,1100c-5.82-2.31-11.67-4.58-17.45-6.93l-17.21-7.2-34.37-14.36c-2.85-1.2-5.72-2.38-8.56-3.6l-8.44-3.72-16.84-7.43c-11.19-5-22.42-9.83-33.48-14.81-44-20.25-86.89-40.49-127.11-61.33l-15.09-7.72-7.49-3.83-7.34-3.93-29-15.52-7.14-3.83c-2.38-1.27-4.68-2.6-7-3.9l-13.83-7.76-13.67-7.67c-2.27-1.26-4.52-2.53-6.77-3.79s-4.42-2.58-6.62-3.86l-26-15.21-6.37-3.73-6.2-3.79-12.24-7.5-12-7.36c-2-1.23-4-2.42-5.92-3.65l-5.77-3.69-22.53-14.39-2.75-1.75L-804.7,856l-5.32-3.54-10.47-7-10.23-6.8-9.78-6.77c-6.42-4.47-12.74-8.78-18.76-13l-17.35-12.51-4.18-3-4-3-7.81-5.86c-5.13-3.84-10.09-7.52-14.67-11.15L-920.59,773l-11.82-9.56c-14.8-12.14-25.93-21.84-33.05-28.39-1.83-1.64-3.28-3-4.62-4.28l-1.8-1.69-1.23-1.19-.28-.29V851.4l8.49,6,4.45,3.11,4.59,3.11,19.08,12.9c6.6,4.39,13.49,8.8,20.51,13.38l10.68,6.93,11.12,7,11.38,7.1,5.78,3.61,2.92,1.81,3,1.79L-847,932.66l6.24,3.74c2.08,1.25,4.24,2.45,6.38,3.69l13,7.44,13.19,7.56,6.68,3.82,6.83,3.76L-766.93,978c2.36,1.28,4.69,2.6,7.09,3.87l7.24,3.8,14.61,7.67,14.79,7.76c2.48,1.3,4.94,2.63,7.47,3.9l7.62,3.81,30.84,15.47,7.82,3.9,8,3.81,16,7.65c42.73,20.69,88.1,40.64,134.44,60.52,11.66,4.89,23.47,9.65,35.25,14.51l17.72,7.26,8.87,3.64c3,1.19,6,2.33,9,3.51l36.06,14,18.06,7c6.06,2.29,12.18,4.48,18.27,6.73l36.55,13.4,9.13,3.34,4.56,1.68,4.61,1.59,18.44,6.37,36.74,12.69,9.15,3.16c3,1.06,6.15,2,9.22,3l18.43,6c24.54,7.91,48.73,16,73.12,23.21l36.16,11,17.91,5.42,17.93,5.09,35.39,10,17.44,4.94,8.66,2.46c2.89.8,5.8,1.54,8.68,2.31L62,1290.31l8.22,2.17c2.73.72,5.49,1.36,8.22,2l16.29,4,31.83,7.77,30.76,7.5c2.51.63,5,1.19,7.55,1.76l7.5,1.68,14.78,3.32,56,12.58c8.86,2.06,17.6,3.8,26.08,5.54l24.68,5.08,44.68,9.18,10.14,2.09,9.77,1.83,18.2,3.4,9.65,1.8,44.77-38.83Z"/><path class="cls-8" d="M381.7,1298.42c-22.89-4.72-50.54-10.81-82.16-18s-67.12-15.66-105.53-25.53c-38.49-9.71-79.83-20.93-123.22-33.37l-16.35-4.74c-5.48-1.6-11-3.15-16.54-4.85l-33.54-10.1c-11.26-3.47-22.6-7.07-34.07-10.65l-8.62-2.71-8.6-2.79-17.33-5.64c-46.34-15.18-93.68-31.69-141.06-49.43s-94.8-36.7-141.37-56.66l-8.74-3.73-8.68-3.81-17.34-7.61c-11.53-5.09-22.92-10.33-34.36-15.48l-17-7.9c-5.64-2.64-11.32-5.22-16.88-7.92-11.15-5.38-22.37-10.63-33.31-16.1-44-21.63-86.43-43.82-126.34-66.3l-14.9-8.4-14.63-8.44c-9.74-5.57-19.17-11.28-28.6-16.84-18.66-11.28-36.82-22.39-54.1-33.53-8.73-5.5-17.11-11.09-25.47-16.53q-6.19-4.12-12.28-8.21l-6.07-4-5.95-4.08c-15.86-10.76-30.82-21.43-45.07-31.73s-27.56-20.41-40.11-30.09-24.17-19-34.93-27.9c-21.52-17.76-39.49-33.67-53.79-47-12-11.14-21.34-20.45-28.18-27.49V731.2c14.11,12.68,31.19,27.32,51.15,43.41,11.17,9,23.29,18.45,36.22,28.28s26.79,20,41.47,30.41,30.14,21.15,46.48,32l6.13,4.1,6.24,4.09,12.64,8.25c8.6,5.46,17.23,11.09,26.19,16.62,17.77,11.18,36.42,22.34,55.58,33.64,9.67,5.57,19.34,11.3,29.33,16.87l15,8.46,15.27,8.41c40.9,22.49,84.29,44.64,129.24,66.2,11.18,5.45,22.63,10.69,34,16,5.68,2.69,11.48,5.26,17.23,7.89l17.32,7.86c11.67,5.12,23.29,10.33,35,15.39l17.67,7.56,8.84,3.78,8.91,3.7c47.45,19.82,95.72,38.61,143.89,56.14s96.26,33.82,143.28,48.76l17.58,5.55,8.73,2.75,8.74,2.66c11.64,3.52,23.13,7.06,34.56,10.46l34,9.93c5.58,1.66,11.2,3.18,16.76,4.75l16.57,4.64c44,12.19,85.81,23.16,124.75,32.63s74.81,17.77,106.71,24.85,59.89,12.86,83,17.43c23,4.73,41.29,8.1,53.69,10.48h.05l1.91-16.72C418.73,1306.05,402.12,1302.8,381.7,1298.42Z"/><path class="cls-7" d="M2000.35,1581.55,1867.58,1585l-69.95,1.79-82.44,1.1-93.74,1.25c-16.5.31-33.43.23-50.76.25l-53.17,0-55.42,0-28.52,0h-14.45c-4.84,0-9.69-.11-14.57-.16l-120.85-1.48-31.32-.39c-5.25-.08-10.52-.09-15.8-.22l-15.9-.41-64.55-1.63c-43.51-1.17-88-2-133.13-4l-68.28-2.64-34.51-1.34c-5.78-.24-11.56-.42-17.35-.7l-17.37-.91-70-3.66-35.27-1.84-17.7-.92c-5.9-.33-11.82-.56-17.72-1l-142.69-9.42-143.47-11.49-71.6-6.75-35.76-3.37c-11.9-1.15-23.83-2.16-35.66-3.53l-71-7.71-35.32-3.84-8.81-1-8.77-1.08-17.52-2.17c-46.66-5.84-93.06-11.17-138.53-17.78l-67.88-9.4-66.61-10.25-32.89-5.06c-5.47-.8-10.88-1.74-16.29-2.66l-16.17-2.74L-228,1459.16l-7.89-1.34c-2.63-.45-5.23-1-7.84-1.43l-15.59-2.89-30.91-5.73-30.54-5.65-7.57-1.4c-2.52-.47-5-1-7.51-1.49l-14.93-3-58.66-11.81c-2.41-.49-4.82-1-7.21-1.46l-7.13-1.56L-438,1418.3l-28-6.1-27.56-6c-9.06-2.06-18-4.2-26.88-6.27l-26.36-6.18-13-3c-4.3-1-8.62-2-12.83-3.06-67.85-16.68-129.22-33.38-182.92-49.15-53.58-16-99.37-31.1-136.42-44.22l-26.13-9.45-22.7-8.64c-3.55-1.31-6.84-2.67-10-4l-9.19-3.68c-4.92-1.93-9.31-3.79-13.33-5.49v69.26l17,6.2,27.69,9.56c39.14,13.21,87.08,28.28,142.74,44,55.76,15.52,119.17,31.81,189,47.93,4.34,1.06,8.77,2,13.19,3l13.34,2.94,27.08,5.95c9.11,2,18.29,4.05,27.6,6l28.24,5.74,28.71,5.84,14.54,3,7.31,1.49c2.44.49,4.91.93,7.37,1.39l60,11.22,15.26,2.86c2.55.46,5.1,1,7.67,1.41l7.73,1.32,31.17,5.33,31.54,5.4,15.91,2.72c2.65.45,5.31.92,8,1.35l8,1.25,65.1,10.11,16.48,2.56c5.5.86,11,1.74,16.57,2.48l33.45,4.68,67.72,9.47L24,1546.07c46.17,6.06,93.2,10.83,140.49,16.11l17.75,2,8.89,1,8.92.85,35.77,3.4,71.81,6.83c12,1.22,24,2.08,36.07,3.08l36.15,2.92,72.38,5.84,144.85,9.66,143.9,7.57c5.95.35,11.91.5,17.86.76l17.83.69,35.54,1.38,70.51,2.74,17.5.68c5.83.21,11.65.31,17.46.47l34.74.89,68.7,1.74c45.43,1.41,90.14,1.62,133.89,2.21l64.88.78,16,.2c5.31,0,10.6,0,15.88,0l31.45,0,121.37-.13c4.9,0,9.78,0,14.63,0l14.51-.21,28.62-.39,55.62-.78,53.34-.75c17.38-.25,34.37-.4,50.92-.93l94-2.5,82.63-2.2,70.1-2.74,133-5.2Z"/><path class="cls-7" d="M2000.11,1511.87l-34.81,1.36-41.81,1.64c-8.22.36-17.08.58-26.52.86l-30.07.87-33.48,1c-11.71.29-24,.48-36.75.74l-39.88.76-10.44.2-10.63.09-21.8.21-45.7.42c-15.7.07-31.84,0-48.41,0h-25.17l-12.81,0-13-.13-53.35-.55-13.7-.15-13.84-.27-28.08-.56c-18.9-.39-38.15-.7-57.72-1.36l-59.69-1.78-61.49-2.4c-83.11-3.56-170.65-8.51-261-15.24s-183.36-15.21-277.53-25.6-189.43-22.65-284.15-36.67-188.94-29.74-281-47.1L143,1381.64,134.4,1380l-8.55-1.7-17.06-3.38c-11.35-2.26-22.7-4.46-34-6.76l-33.7-7-16.77-3.46-16.66-3.58-33.16-7.11-32.83-7.28c-10.89-2.44-21.77-4.81-32.53-7.33-86.24-19.74-168.93-40.28-246.51-61.26-38.84-10.39-76.33-21-112.51-31.43-18-5.3-35.8-10.44-53.11-15.7s-34.3-10.41-50.9-15.53c-33.12-10.34-64.76-20.41-94.6-30.35l-11.14-3.67-10.94-3.69-21.44-7.25c-14-4.84-27.69-9.49-40.82-14.15-52.63-18.47-97.8-35.47-134.58-49.86s-65.11-26.26-84.13-34.47c-9.5-4.11-16.67-7.29-21.43-9.43l-.45-.21v71.11c17.9,7.19,40.13,15.88,66.4,25.72,38.21,14.31,84.92,31.09,139.13,49.24,13.53,4.58,27.59,9.14,42,13.89l22,7.1,11.25,3.61,11.44,3.59c30.67,9.73,63.13,19.54,97.1,29.62,17,5,34.37,10.08,52.16,15.1s35.91,10.1,54.38,15.23c37,10.1,75.35,20.38,115,30.4,79.26,20.24,163.62,40,251.49,58.79,11,2.41,22,4.67,33.14,7l33.43,6.93,33.76,6.75,17,3.4,17.06,3.28,34.29,6.58c11.46,2.18,23,4.25,34.55,6.39l17.35,3.19,8.69,1.6,8.72,1.53,35,6.15c93.51,16.32,189.15,30.93,285.2,43.84s192.55,24,287.84,33.22,189.36,16.55,280.55,22.12,179.51,9.4,263.3,11.87l62,1.59,60.13,1c19.71.39,39.1.45,58.13.59l28.27.18,13.93.1,13.79,0,53.7-.15,13.05,0,12.89-.16,25.32-.32c16.67-.23,32.9-.38,48.68-.66l46-1,21.91-.49,10.69-.25,10.49-.33,40.07-1.3c12.84-.43,25.16-.78,36.92-1.23l33.62-1.42,30.2-1.28c9.48-.41,18.37-.75,26.62-1.22l42-2.2,34.94-1.84Z"/><path class="cls-8" d="M2000.62,1500.42l-34.84,1.48-41.85,1.78c-8.23.39-17.09.64-26.54,1l-30.11,1-33.51,1.08c-11.73.34-24,.56-36.8.87l-39.92.89-10.46.24-10.64.13-21.83.27-45.76.58c-15.72.12-31.89.11-48.48.18l-25.2.07-12.84,0-13-.09-53.45-.37-13.72-.1-13.86-.23-28.13-.46c-18.93-.32-38.22-.57-57.82-1.17l-59.8-1.58-61.61-2.2c-83.29-3.28-171-8-261.54-14.39s-183.85-14.63-278.3-24.73-190-22.06-285.08-35.8-189.62-29.18-282-46.28L139,1376.11l-8.61-1.61-8.59-1.67-17.13-3.33c-11.4-2.23-22.8-4.4-34.12-6.67L36.67,1356l-16.85-3.41L3.08,1349l-33.31-7-33-7.2c-10.94-2.4-21.87-4.75-32.68-7.24-86.65-19.52-169.76-39.84-247.76-60.64-39.06-10.3-76.76-20.84-113.15-31.17-18.14-5.25-36-10.36-53.43-15.58s-34.51-10.34-51.22-15.42c-33.33-10.28-65.18-20.28-95.23-30.17l-11.21-3.65-11-3.67-21.59-7.21c-14.13-4.82-27.9-9.45-41.12-14.09-53-18.39-98.59-35.33-135.73-49.7s-65.81-26.25-85.13-34.49c-4.07-1.74-7.69-3.3-10.91-4.71v35.29c19.19,7.9,44.81,18.13,76.37,30.09,37.85,14.33,84.17,31.17,138,49.39,13.42,4.6,27.39,9.19,41.72,14l21.89,7.13,11.18,3.64,11.36,3.61c30.45,9.78,62.71,19.66,96.46,29.8,16.92,5,34.16,10.16,51.84,15.21s35.71,10.18,54.07,15.35c36.8,10.18,74.93,20.55,114.4,30.66,78.84,20.43,162.78,40.34,250.24,59.41,10.92,2.44,21.94,4.72,33,7.07l33.28,7L-6,1371.55,10.89,1375l17,3.32L62,1385c11.42,2.21,22.91,4.31,34.41,6.48l17.28,3.24,8.65,1.62,8.69,1.56,34.84,6.24C259,1420.72,354.3,1435.6,450,1448.8s191.9,24.58,286.9,34.09,188.83,17.13,279.8,23,179.09,10,262.71,12.72l61.85,1.79,60,1.2c19.68.47,39,.59,58,.79l28.22.28,13.91.14h13.76l53.62,0h13l12.87-.11,25.28-.24c16.64-.17,32.85-.26,48.61-.49l45.89-.88,21.88-.42,10.67-.21,10.48-.3,40-1.16c12.83-.39,25.13-.7,36.88-1.11l33.59-1.31,30.17-1.18c9.46-.37,18.34-.68,26.59-1.13l41.93-2,34.9-1.72Z"/><polygon class="cls-8" points="626.39 790.5 628.48 779.74 656.24 760.33 -71.92 0 -5.29 0 667.35 745.4 675.64 763.08 626.39 790.5"/><polygon class="cls-7" points="668.02 754.85 -29.88 0 -86.19 0 650.69 761.73 606.07 785.9 622.87 792.05 665.7 768.53 675.64 763.08 668.02 754.85"/><path class="cls-5" d="M4264.82,0h711.84V249c-123,117.88-673.91,603.48-1179,746C3792.8,986.65,3485,812.13,3378,781.53Z"/><path class="cls-6" d="M3796.93,991.94l4.43,2.23-4.33-5.79h0l-.1,3.56L3347,764.81l9.51-8.21,456.53,225.67,4.21,2.1.12,3.68h0l5,55.56h0c-8.78,6.48-9.44,6.79-9.44,6.79l-9.83,0,5.72,2.51-14.05,10.34.1-3.26Z"/><polygon class="cls-6" points="4170.28 956.79 4185.72 857.59 3620.35 567.66 3599.53 588.38 4147.93 869.6 4134.81 953.97 4170.28 956.79"/><rect class="cls-12" x="1.57" y="1700.31" width="4004.2" height="321.7"/><rect class="cls-13" x="2015.05" y="1785.41" width="17.86" height="9.07"/><rect class="cls-13" x="2079.05" y="1785.41" width="17.87" height="9.07"/><polygon class="cls-13" points="2143.96 1794.48 2161.87 1794.48 2160.17 1785.41 2142.29 1785.41 2143.96 1794.48"/><polygon class="cls-13" points="2210.08 1794.48 2228.2 1794.48 2223.53 1785.41 2205.42 1785.41 2210.08 1794.48"/><polygon class="cls-13" points="2322.07 1794.48 2339.39 1794.48 2328.89 1785.41 2311.57 1785.41 2322.07 1794.48"/><polygon class="cls-13" points="2377.78 1794.48 2395.18 1794.48 2384.29 1785.41 2366.88 1785.41 2377.78 1794.48"/><polygon class="cls-13" points="2439.9 1794.48 2457.9 1794.48 2444.6 1785.41 2426.61 1785.41 2439.9 1794.48"/><polygon class="cls-13" points="2495.82 1794.48 2514.64 1794.48 2498.43 1785.41 2479.62 1785.41 2495.82 1794.48"/><polygon class="cls-13" points="2588.6 1794.48 2611.56 1794.48 2586.87 1785.41 2563.9 1785.41 2588.6 1794.48"/><polygon class="cls-13" points="2649.46 1794.48 2672.92 1794.48 2647.04 1785.41 2623.59 1785.41 2649.46 1794.48"/><polygon class="cls-13" points="2709.78 1794.48 2734.63 1794.48 2705.61 1785.41 2680.74 1785.41 2709.78 1794.48"/><polygon class="cls-13" points="2770.88 1794.48 2795.8 1794.48 2766.62 1785.41 2741.68 1785.41 2770.88 1794.48"/><polygon class="cls-13" points="2863.16 1794.48 2882 1794.48 2852.59 1785.41 2833.76 1785.41 2863.16 1794.48"/><polygon class="cls-13" points="2926.67 1794.48 2946.21 1794.48 2914.79 1785.41 2895.26 1785.41 2926.67 1794.48"/><polygon class="cls-13" points="2980.92 1794.48 3002.26 1794.48 2965.88 1785.41 2944.54 1785.41 2980.92 1794.48"/><polygon class="cls-13" points="3045.27 1794.48 3067.64 1794.48 3028.54 1785.41 3006.16 1785.41 3045.27 1794.48"/><polygon class="cls-13" points="3159.21 1794.48 3179.26 1794.48 3142.23 1785.41 3122.18 1785.41 3159.21 1794.48"/><polygon class="cls-13" points="3212.34 1794.48 3235.55 1794.48 3189.79 1785.41 3166.57 1785.41 3212.34 1794.48"/><polygon class="cls-13" points="3260.78 1794.48 3285.25 1794.48 3236.2 1785.41 3211.73 1785.41 3260.78 1794.48"/><polygon class="cls-13" points="3318.57 1794.48 3339.84 1794.41 3289.7 1785.41 3262.47 1785.41 3318.57 1794.48"/><polygon class="cls-13" points="3408.06 1794.48 3432.22 1794.48 3384.26 1785.41 3364.2 1785.41 3408.06 1794.48"/><polygon class="cls-13" points="3458.27 1794.48 3482.42 1794.48 3431.84 1785.41 3408.6 1785.41 3458.27 1794.48"/><polygon class="cls-13" points="3505.63 1794.48 3531.69 1794.48 3478.24 1785.41 3453.77 1785.41 3505.63 1794.48"/><polygon class="cls-13" points="3563.89 1794.48 3586.62 1794.41 3531.72 1785.41 3504.52 1785.41 3563.89 1794.48"/><polygon class="cls-13" points="3671.89 1794.48 3695.09 1794.48 3639.08 1785.41 3619.02 1785.41 3671.89 1794.48"/><polygon class="cls-13" points="3718.3 1794.48 3744.35 1794.48 3686.66 1785.41 3663.42 1785.41 3718.3 1794.48"/><polygon class="cls-13" points="3766.13 1794.48 3794.08 1794.48 3733.07 1785.41 3708.58 1785.41 3766.13 1794.48"/><polygon class="cls-13" points="3821.56 1794.48 3847.6 1794.41 3786.53 1785.41 3759.32 1785.41 3821.56 1794.48"/><polygon class="cls-13" points="3935.71 1794.48 3959.38 1794.48 3893.9 1785.41 3873.85 1785.41 3935.71 1794.48"/><rect class="cls-13" x="2079.47" y="1925.64" width="22.73" height="17.06"/><rect class="cls-13" x="2160.94" y="1925.64" width="22.74" height="17.06"/><polygon class="cls-13" points="2243.58 1942.7 2266.36 1942.7 2263.9 1925.64 2241.13 1925.64 2243.58 1942.7"/><polygon class="cls-13" points="2327.74 1942.7 2350.8 1942.7 2344.01 1925.64 2320.95 1925.64 2327.74 1942.7"/><polygon class="cls-13" points="2497.7 1942.7 2522.06 1942.7 2506.72 1925.64 2482.35 1925.64 2497.7 1942.7"/><polygon class="cls-13" points="2576.02 1942.7 2600.51 1942.7 2584.61 1925.64 2560.12 1925.64 2576.02 1942.7"/><polygon class="cls-13" points="2663.41 1942.7 2688.72 1942.7 2669.28 1925.64 2643.97 1925.64 2663.41 1942.7"/><polygon class="cls-13" points="2742.06 1942.7 2768.53 1942.7 2744.84 1925.64 2718.38 1925.64 2742.06 1942.7"/><polygon class="cls-13" points="2920.37 1942.7 2951.08 1942.7 2914.98 1925.64 2884.27 1925.64 2920.37 1942.7"/><polygon class="cls-13" points="3001.76 1942.7 3033.13 1942.7 2995.32 1925.64 2963.96 1925.64 3001.76 1942.7"/><polygon class="cls-13" points="3082.41 1942.7 3115.65 1942.7 3073.23 1925.64 3039.99 1925.64 3082.41 1942.7"/><polygon class="cls-13" points="3164.13 1942.7 3197.47 1942.7 3154.79 1925.64 3121.46 1925.64 3164.13 1942.7"/><polygon class="cls-13" points="3363.79 1942.7 3388.9 1942.7 3345.91 1925.64 3320.8 1925.64 3363.79 1942.7"/><polygon class="cls-13" points="3448.46 1942.7 3474.5 1942.7 3428.59 1925.64 3402.57 1925.64 3448.46 1942.7"/><polygon class="cls-13" points="3520.8 1942.7 3549.24 1942.7 3496.07 1925.64 3467.62 1925.64 3520.8 1942.7"/><polygon class="cls-13" points="3606.57 1942.7 3636.42 1942.7 3579.27 1925.64 3549.41 1925.64 3606.57 1942.7"/><polygon class="cls-13" points="3764.79 1942.7 3793.58 1942.7 3739.45 1925.64 3710.66 1925.64 3764.79 1942.7"/><polygon class="cls-13" points="3841.05 1942.7 3874.4 1942.7 3807.52 1925.64 3774.17 1925.64 3841.05 1942.7"/><polygon class="cls-13" points="3910.62 1942.7 3945.77 1942.7 3874.07 1925.64 3838.92 1925.64 3910.62 1942.7"/><polygon class="cls-13" points="3993.57 1942.7 4005.77 1942.7 4005.77 1937.11 3950.67 1925.64 3911.6 1925.64 3993.57 1942.7"/><polygon class="cls-13" points="3941.48 1785.41 3918.24 1785.41 3984.49 1794.48 4005.33 1794.48 4005.33 1793.63 3941.48 1785.41"/><polygon class="cls-13" points="3987.89 1785.41 3963.4 1785.41 4005.33 1790.7 4005.33 1787.44 3987.89 1785.41"/><rect class="cls-13" x="1974.47" y="1785.41" width="17.86" height="9.07"/><rect class="cls-13" x="1910.47" y="1785.41" width="17.87" height="9.07"/><polygon class="cls-13" points="1863.41 1794.48 1845.51 1794.48 1847.21 1785.41 1865.1 1785.41 1863.41 1794.48"/><polygon class="cls-13" points="1797.31 1794.48 1779.18 1794.48 1783.84 1785.41 1801.96 1785.41 1797.31 1794.48"/><polygon class="cls-13" points="1685.33 1794.48 1667.99 1794.48 1678.49 1785.41 1695.82 1785.41 1685.33 1794.48"/><polygon class="cls-13" points="1629.61 1794.48 1612.2 1794.48 1623.09 1785.41 1640.49 1785.41 1629.61 1794.48"/><polygon class="cls-13" points="1567.48 1794.48 1549.48 1794.48 1562.79 1785.41 1580.77 1785.41 1567.48 1794.48"/><polygon class="cls-13" points="1511.56 1794.48 1492.75 1794.48 1508.94 1785.41 1527.76 1785.41 1511.56 1794.48"/><polygon class="cls-13" points="1418.78 1794.48 1395.82 1794.48 1420.52 1785.41 1443.48 1785.41 1418.78 1794.48"/><polygon class="cls-13" points="1357.92 1794.48 1334.46 1794.48 1360.35 1785.41 1383.79 1785.41 1357.92 1794.48"/><polygon class="cls-13" points="1297.61 1794.48 1272.75 1794.48 1301.79 1785.41 1326.64 1785.41 1297.61 1794.48"/><polygon class="cls-13" points="1236.51 1794.48 1211.57 1794.48 1240.76 1785.41 1265.7 1785.41 1236.51 1794.48"/><polygon class="cls-13" points="1144.21 1794.48 1125.38 1794.48 1154.79 1785.41 1173.62 1785.41 1144.21 1794.48"/><polygon class="cls-13" points="1080.71 1794.48 1061.18 1794.48 1092.59 1785.41 1112.13 1785.41 1080.71 1794.48"/><polygon class="cls-13" points="1026.47 1794.48 1005.1 1794.48 1041.49 1785.41 1062.85 1785.41 1026.47 1794.48"/><polygon class="cls-13" points="962.12 1794.48 939.74 1794.48 978.84 1785.41 1001.22 1785.41 962.12 1794.48"/><polygon class="cls-13" points="848.18 1794.48 828.13 1794.48 865.16 1785.41 885.22 1785.41 848.18 1794.48"/><polygon class="cls-13" points="795.05 1794.48 771.82 1794.48 817.58 1785.41 840.82 1785.41 795.05 1794.48"/><polygon class="cls-13" points="746.6 1794.48 722.13 1794.48 771.17 1785.41 795.65 1785.41 746.6 1794.48"/><polygon class="cls-13" points="688.81 1794.48 667.52 1794.41 717.7 1785.41 744.9 1785.41 688.81 1794.48"/><polygon class="cls-13" points="599.32 1794.48 575.17 1794.48 623.12 1785.41 643.17 1785.41 599.32 1794.48"/><polygon class="cls-13" points="549.11 1794.48 524.95 1794.48 575.55 1785.41 598.78 1785.41 549.11 1794.48"/><polygon class="cls-13" points="501.74 1794.48 475.69 1794.48 529.14 1785.41 553.62 1785.41 501.74 1794.48"/><polygon class="cls-13" points="443.49 1794.48 420.75 1794.41 475.67 1785.41 502.87 1785.41 443.49 1794.48"/><polygon class="cls-13" points="335.5 1794.48 312.29 1794.48 368.3 1785.41 388.35 1785.41 335.5 1794.48"/><polygon class="cls-13" points="289.08 1794.48 263.02 1794.48 320.72 1785.41 343.96 1785.41 289.08 1794.48"/><polygon class="cls-13" points="241.24 1794.48 213.29 1794.48 274.31 1785.41 298.79 1785.41 241.24 1794.48"/><polygon class="cls-13" points="185.82 1794.48 159.78 1794.41 220.84 1785.41 248.04 1785.41 185.82 1794.48"/><polygon class="cls-13" points="71.68 1794.48 47.99 1794.48 113.47 1785.41 133.53 1785.41 71.68 1794.48"/><rect class="cls-13" x="1905.18" y="1925.64" width="22.74" height="17.06"/><rect class="cls-13" x="1823.7" y="1925.64" width="22.74" height="17.06"/><polygon class="cls-13" points="1763.79 1942.7 1741.01 1942.7 1743.48 1925.64 1766.25 1925.64 1763.79 1942.7"/><polygon class="cls-13" points="1679.65 1942.7 1656.58 1942.7 1663.37 1925.64 1686.43 1925.64 1679.65 1942.7"/><polygon class="cls-13" points="1509.69 1942.7 1485.32 1942.7 1500.66 1925.64 1525.03 1925.64 1509.69 1942.7"/><polygon class="cls-13" points="1431.35 1942.7 1406.86 1942.7 1422.77 1925.64 1447.27 1925.64 1431.35 1942.7"/><polygon class="cls-13" points="1343.97 1942.7 1318.67 1942.7 1338.11 1925.64 1363.41 1925.64 1343.97 1942.7"/><polygon class="cls-13" points="1265.33 1942.7 1238.87 1942.7 1262.55 1925.64 1289 1925.64 1265.33 1942.7"/><polygon class="cls-13" points="1087 1942.7 1056.32 1942.7 1092.41 1925.64 1123.11 1925.64 1087 1942.7"/><polygon class="cls-13" points="1005.62 1942.7 974.25 1942.7 1012.07 1925.64 1043.42 1925.64 1005.62 1942.7"/><polygon class="cls-13" points="924.97 1942.7 891.72 1942.7 934.15 1925.64 967.39 1925.64 924.97 1942.7"/><polygon class="cls-13" points="843.25 1942.7 809.91 1942.7 852.58 1925.64 885.92 1925.64 843.25 1942.7"/><polygon class="cls-13" points="643.59 1942.7 618.48 1942.7 661.47 1925.64 686.57 1925.64 643.59 1942.7"/><polygon class="cls-13" points="558.92 1942.7 532.88 1942.7 578.79 1925.64 604.83 1925.64 558.92 1942.7"/><polygon class="cls-13" points="486.59 1942.7 458.14 1942.7 511.3 1925.64 539.76 1925.64 486.59 1942.7"/><polygon class="cls-13" points="400.81 1942.7 370.96 1942.7 428.11 1925.64 457.96 1925.64 400.81 1942.7"/><polygon class="cls-13" points="244.93 1942.7 216.14 1942.7 270.27 1925.64 299.06 1925.64 244.93 1942.7"/><polygon class="cls-13" points="168.67 1942.7 135.32 1942.7 202.19 1925.64 235.54 1925.64 168.67 1942.7"/><polygon class="cls-13" points="99.1 1942.7 63.96 1942.7 135.65 1925.64 170.79 1925.64 99.1 1942.7"/><polygon class="cls-13" points="16.14 1942.7 3.95 1942.7 3.95 1937.11 59.06 1925.64 98.11 1925.64 16.14 1942.7"/><polygon class="cls-13" points="65.91 1785.41 89.13 1785.41 22.89 1794.48 2.06 1794.48 2.06 1793.63 65.91 1785.41"/><polygon class="cls-13" points="19.49 1785.41 43.97 1785.41 2.06 1790.7 2.06 1787.44 19.49 1785.41"/><path class="cls-14" d="M598.91,1855.86h21.2c-3.93,8.19-44.92,11.49-71.58,15-30.63,12.18-82.3,17.35-132.59,23H392.07c9.19-8.72,33.93-12.26,63.65-14.15-3.87,2.79-32.63,5.9-21.22,8,32.9-2,59.69-6,79.55-12.38-1.84-1.75-14.8.21-15.92-1.77,24.57-6.25,76.26-3.46,90.16-13.26-23.14,0-41.81,6.08-58.33,5.31C546.77,1860.29,575.31,1858.9,598.91,1855.86Z"/><path class="cls-14" d="M743.33,1855.86h18.56c-.2,6.92-57.32,17.77-84.85,23-37.25,7.07-74.34,11.54-106.06,15H552.41c16.47-11.29,57.68-17.37,92.81-23.87C676.36,1864.24,710.9,1859.36,743.33,1855.86Zm-127.28,23.87c-10.35,2.23-27,4.29-23.86,8,56.4-6.25,104.3-15.34,143.19-27.41C693.69,1863.4,646.83,1873.14,616.05,1879.73Z"/><path class="cls-14" d="M1286.73,1855.86h8c-6.25,8-38.35,14.87-55.68,22.11,1.07,1.7,10.28.7,8,3.54-21.26,3.23-41.4,6.82-55.68,12.37h-10.61c-1.49-4,24.33-7.39,13.26-8.84-12-.72-33.4,1.71-37.13-1.77C1193,1871.75,1244.75,1865.45,1286.73,1855.86Zm-98.11,23c42.25,2.59,55.37-9.24,66.3-14.15C1235.35,1870.26,1209.32,1873.67,1188.62,1878.85Z"/><path class="cls-14" d="M1388.93,1855.86h18.56a33.84,33.84,0,0,0,8,1.77c-14.4,18.49-53.75,28.64-100.77,36.25h-18.56C1266.76,1883.41,1367,1857.67,1388.93,1855.86Zm-74.25,31.84c42.44-3.84,64.56-14.44,79.56-27.41C1352.83,1863.9,1324.32,1876.42,1314.68,1887.7Z"/><path class="cls-14" d="M1937.27,1855.86H1985c1.4.72,2.76,1.44,2.65,2.66-.72,5.06-26.85,1.66-39.79,2.65-5.88,1.28-3.65,5.27-7.94,7.07,57.23-9.9,62.3,25.1,13.26,25.64h-18.55c-17.4-.73-35.12-10.86-13.26-14.15,13.21,3.46,8.35,8.11,26.49,8,20.28-.17,29.53-11.12,10.63-15.92-20.3-1.53-27.3,7-39.78,2.65A47.72,47.72,0,0,1,1937.27,1855.86Z"/><path class="cls-14" d="M2052.07,1855.86h18.55c36.36,4.74,39.38,33.91,0,38h-15.91C2014.63,1891.5,2014.65,1859.33,2052.07,1855.86Zm13.24,31.84c21.3-1.24,15.44-20.87,5.31-26.53C2031,1856.86,2035.33,1889.42,2065.31,1887.7Z"/><path class="cls-14" d="M2621.91,1855.86h10.63c23.63,6.56,40.4,15.41,61,23,13.57-.09,22,1.51,26.52,4.42,2.68,2.66-5.91,1.57-10.6,1.77,4.56,3.19,16.73,3.85,15.91,8.84h-10.61c-12.42-2.06-11.93-7.08-29.18-8.84-20.11-2.06-51.23,2.56-58.32-5.31C2623.31,1872.5,2622.84,1864.1,2621.91,1855.86Zm21.23,23c9.79-.57,26.42,1.15,31.82-.88-14.85-2.72-23.34-12.25-37.14-12.37C2642.12,1869.17,2643.24,1873.8,2643.14,1878.85Z"/><path class="cls-14" d="M2726,1855.86h18.58c48,8.15,92.9,17.35,108.7,36.25-2.36.39-4.74.78-5.3,1.77h-18.55C2796.23,1891.08,2703.79,1866.19,2726,1855.86Zm100.77,31.84c-11.51-11.23-43.23-23.28-84.84-27.41C2758.74,1873.23,2782.84,1883.76,2826.73,1887.7Z"/><path class="cls-14" d="M3246,1855.86h21.23c32.9,4.06,67.74,7.47,87.49,15.92,40.07,4.93,94.94,9.57,103.41,22.1H3437c-31.83-3.53-76.17-7.61-90.15-14.15,28.82.71,47.14,9.63,76.89,7.07-20.89-10.7-76.9-9.72-108.71-16.79-.83-2.35,14.85.83,10.61-2.66-15.28-2.85-29.2-6.17-50.4-7.06-10.16,2,15.49,4.15,5.32,6.18C3267.21,1864,3239.6,1862,3246,1855.86Z"/><path class="cls-14" d="M3387.77,1855.86h18.55c77.15,9.94,157.49,18.82,206.84,38h-21.23c-31.26-3-67.92-8.59-106.06-15C3448.25,1872.5,3393.91,1864,3387.77,1855.86Zm185.6,31.84c-43.32-12.09-95-21.36-156.45-27.41C3460.69,1872.22,3511,1882,3573.37,1887.7Z"/><polygon class="cls-13" points="1991.39 1941.43 2017.87 1941.43 2007.73 1701.51 2001.53 1701.51 1991.39 1941.43"/><polygon class="cls-13" points="2421.6 1941.43 2450.05 1941.43 2182.82 1701.51 2176.4 1701.51 2421.6 1941.43"/><polygon class="cls-13" points="2844.4 1941.43 2880.48 1941.43 2361.01 1701.51 2353.57 1701.51 2844.4 1941.43"/><polygon class="cls-13" points="3260.95 1941.43 3298.95 1941.43 2541.82 1701.51 2533.25 1701.51 3260.95 1941.43"/><polygon class="cls-13" points="3672.83 1941.43 3709.06 1941.43 2732.97 1701.51 2723.13 1701.51 3672.83 1941.43"/><polygon class="cls-13" points="4005.33 1929.06 4005.33 1920.88 2924.78 1701.51 2913.31 1701.51 4005.33 1929.06"/><polygon class="cls-13" points="4005.33 1858.84 4005.33 1854.96 3084.61 1701.51 3071.7 1701.51 4005.33 1858.84"/><polygon class="cls-13" points="4005.33 1812.9 4005.33 1808.72 3227.34 1701.51 3212.01 1701.51 4005.33 1812.9"/><polygon class="cls-13" points="3379.15 1702.03 4005.33 1777.66 4005.33 1775.38 3391.55 1701.51 3379.72 1701.51 3379.15 1702.03"/><polygon class="cls-13" points="4005.33 1746.38 4005.33 1744.49 3611.92 1701.51 3593.69 1701.51 4005.33 1746.38"/><polygon class="cls-13" points="4005.33 1722.4 4005.33 1718.46 3785.84 1701.51 3759.1 1701.51 4005.33 1722.4"/><polygon class="cls-13" points="1557.33 1941.43 1585.79 1941.43 1830.98 1701.51 1824.57 1701.51 1557.33 1941.43"/><polygon class="cls-13" points="1126.89 1941.43 1162.99 1941.43 1653.81 1701.51 1646.36 1701.51 1126.89 1941.43"/><polygon class="cls-13" points="708.43 1941.43 746.43 1941.43 1474.13 1701.51 1465.57 1701.51 708.43 1941.43"/><polygon class="cls-13" points="298.33 1941.43 334.55 1941.43 1284.26 1701.51 1274.4 1701.51 298.33 1941.43"/><polygon class="cls-13" points="2.06 1920.88 2.06 1929.06 1094.07 1701.51 1082.61 1701.51 2.06 1920.88"/><polygon class="cls-13" points="2.06 1854.96 2.06 1858.84 935.69 1701.51 922.76 1701.51 2.06 1854.96"/><polygon class="cls-13" points="2.06 1808.72 2.06 1812.9 795.37 1701.51 780.04 1701.51 2.06 1808.72"/><polygon class="cls-13" points="2.06 1775.38 2.06 1777.66 628.23 1702.03 627.66 1701.51 615.83 1701.51 2.06 1775.38"/><polygon class="cls-13" points="2.06 1744.49 2.06 1746.38 413.68 1701.51 395.45 1701.51 2.06 1744.49"/><polygon class="cls-13" points="2.06 1718.46 2.06 1722.4 248.28 1701.51 221.55 1701.51 2.06 1718.46"/><g class="cls-15"><rect class="cls-16" x="1.9" y="1699.01" width="4003.43" height="322.16"/></g><polygon class="cls-6" points="4524.55 734.25 4548.29 624.04 3923.08 300.84 3892.07 328.62 4494.26 640.16 4475.16 728.82 4524.55 734.25"/><polygon class="cls-7" points="4139.65 954.45 4155.08 855.25 3619.14 580.68 3596.93 599.66 4117.29 867.26 4104.17 951.64 4139.65 954.45"/><polygon class="cls-7" points="4503.14 737.65 4526.88 627.43 3923.28 315.29 3893.93 343.33 4472.84 643.56 4453.74 732.22 4503.14 737.65"/><polygon class="cls-8" points="3596.93 599.66 3619.14 580.68 3620.28 567.9 3599.3 586.7 3596.93 599.66"/><polygon class="cls-8" points="3893.93 343.33 3923.28 315.29 3923.08 300.84 3892.07 328.62 3893.93 343.33"/><path class="cls-8" d="M3794.83,1063.23l14.05-10.34,11.64-8.57,2-.71q39.38-14,77.85-29.24l23.83-9.65c4-1.59,7.89-3.29,11.83-4.94l11.8-5,11.78-5,11.69-5.13,11.67-5.13,5.84-2.57,5.79-2.63,23.12-10.53c7.68-3.56,15.28-7.19,22.92-10.78,3.81-1.81,7.65-3.58,11.43-5.42l11.34-5.53,11.33-5.52,5.67-2.77L4086,931l22.45-11.29,22.25-11.49c3.7-1.93,7.43-3.82,11.1-5.78l11-5.86,11-5.86,5.51-2.93,5.45-3,21.82-11.93c7.25-4,14.42-8.07,21.64-12.1l10.8-6.07,10.71-6.16c7.12-4.11,14.32-8.16,21.38-12.34q42.61-24.81,84.06-50.66t81.93-52.47q40.49-26.62,79.94-54t78.06-55.48q38.63-28,76.28-56.74T4736,508.87q36.85-29.24,72.91-59,72.1-59.5,140.94-121,13.47-12,26.79-24.16v25.69l-9.28,8.41q-68.72,61.94-140.78,121.92-36,30-72.86,59.48t-74.58,58.39q-37.71,28.93-76.31,57.27t-78.13,56q-39.61,27.63-80.09,54.63t-82.16,53.07q-41.7,26.05-84.4,51.31c-7.09,4.23-14.32,8.34-21.48,12.51l-10.76,6.24L4235,875.81c-7.25,4.09-14.46,8.22-21.75,12.28l-21.95,12.11-5.49,3-5.54,3-11.08,5.95-11.08,6c-3.7,2-7.46,3.9-11.18,5.86l-22.41,11.68-22.62,11.48-5.66,2.87-5.71,2.81-11.44,5.63-11.43,5.62c-3.8,1.87-7.68,3.68-11.53,5.52-7.71,3.66-15.38,7.36-23.12,11l-23.35,10.74-5.84,2.68-5.91,2.62-11.8,5.23-11.8,5.24-11.92,5.1-11.93,5.09c-4,1.68-7.93,3.42-12,5l-24.13,9.88q-48.51,19.42-98.58,36.91h0l-21.29,6.71Z"/><path class="cls-7" d="M3787.41,998.74,3376.56,789.63l9.42-9.42,417.56,208.85,4.21,2.11.12,3.68h0l5.12,55.55q39.38-14,77.85-29.24l23.83-9.66c4-1.58,7.89-3.28,11.83-4.93l11.8-5,11.79-5,11.68-5.13,11.67-5.13,5.85-2.57,5.78-2.63,23.13-10.53c7.67-3.56,15.27-7.19,22.91-10.78,3.81-1.81,7.66-3.58,11.43-5.42l11.34-5.53,11.34-5.53,5.66-2.76,5.62-2.82L4099,926.48,4121.2,915c3.7-1.93,7.43-3.82,11.11-5.78l11-5.86,11-5.86,5.51-2.94,5.45-3,21.82-11.93c7.25-4,14.43-8.07,21.64-12.11l10.8-6.06,10.71-6.16c7.12-4.11,14.32-8.17,21.38-12.34q42.61-24.81,84.07-50.66t81.93-52.47q40.47-26.62,79.93-54.05t78.06-55.48q38.63-28,76.28-56.74t74.59-57.91q36.85-29.23,72.91-59,72.12-59.51,140.94-121,18.28-16.33,36.31-32.82v25.71q-9.37,8.55-18.8,17.06-68.71,61.94-140.77,121.92-36,30-72.87,59.48t-74.57,58.39q-37.72,28.92-76.31,57.26t-78.14,56q-39.61,27.63-80.09,54.63T4353,806.4q-41.7,26.05-84.4,51.31c-7.09,4.23-14.32,8.34-21.48,12.51l-10.76,6.24-10.86,6.15c-7.25,4.09-14.46,8.22-21.75,12.28L4181.75,907l-5.48,3-5.55,3-11.08,6-11.08,5.95c-3.7,2-7.46,3.91-11.18,5.87L4115,942.45l-22.62,11.48-5.66,2.87-5.71,2.81-11.43,5.62-11.43,5.63c-3.81,1.87-7.69,3.68-11.53,5.52-7.71,3.66-15.38,7.36-23.13,11l-23.35,10.74-5.84,2.68-5.9,2.62-11.8,5.23-11.81,5.24-11.92,5.1-11.93,5.09c-4,1.68-7.93,3.42-12,5l-24.13,9.88q-48.51,19.43-98.58,36.91h0l-21.28,6.7.46-15.82Z"/><path class="cls-9" d="M3807.32,1066.4c444.82-133.77,988-581.13,1169.34-738V823.17c-345.68,266.74-1355,508.4-1355,508.4l-39.26-28Z"/><path class="cls-9" d="M2002.14,1699.66l1167.06,1.13,996,14.17,811.49,25.61V847.28s-1117.23,751.25-2974.52,615.27"/><path class="cls-7" d="M3470.89,1387.6l15.85-2.61c-11.95,16.29-39.48,45.32-99.55,79.2l-7.37-6.67C3430.55,1428.91,3457.32,1403.76,3470.89,1387.6Z"/><polygon class="cls-8" points="3735.69 1699.65 3916.25 1583.92 3975.71 1699.65 3735.69 1699.65"/><polygon class="cls-10" points="4149.74 1550.09 4140.22 1699.65 3975.71 1699.65 3916.25 1583.92 3921.3 1580.68 4149.74 1550.09"/><polygon class="cls-7" points="3571.38 1699.65 3773.76 1438.76 3667.75 1454.1 3526.77 1702.66 3571.38 1699.65"/><polygon class="cls-7" points="2711.19 1699.65 2898.06 1516.94 2829.05 1515.24 2674.38 1699.65 2711.19 1699.65"/><path class="cls-17" d="M1976.86,1579l360.55,3.94C4324.1,1510.4,4979,1209.7,4979,1209.7V1128l-354.54,124.1c-1210.18,374.27-2613.14,281.69-2613.14,281.69-913.88,29.54-1390.14-53.07-1390.14-53.07l-34.91-25.39-197.6-83.41L431.22,1335l-5.16-19L219.79,1099.82l-1.56-91.23c-512-153-1014.77-582.95-1191.63-745V2332.42l2129.19,1.07c-739-57.13-1048.89-162.39-1048.89-272.33,0-228.12,1552-413,3466.39-413,500.45,0,976.08,12.64,1405.75,35.39v-367c-113.33,43-759.13,263.35-2185,297.73l-792.65-12.31-781.5,15.68-10.53-14.91L1177.21,1585Z"/><polygon class="cls-8" points="3628.6 1539.04 3679.76 1458.31 3681.55 1534.37 3628.6 1539.04"/><polygon class="cls-11" points="3724.98 1455.76 3694.84 1532.81 3680.06 1534.79 3679.17 1459.15 3724.98 1455.76"/><path class="cls-8" d="M3692.7,1187.21c41.11-13.22,140.43-46.4,209.17-71.67,34.38-12.6,71.34-26.67,110.07-42s79.18-32,120.56-49.74,83.64-36.7,126-56.58,84.75-40.67,126.36-62.24,82.53-43.8,121.93-66.43,77.31-45.62,113-68.62S4689,724,4719.9,701.61s59-44.24,84.17-64.89l9.35-7.65q4.53-3.84,8.95-7.6t8.76-7.42l4.29-3.64,4.14-3.66q8.23-7.26,16-14.14c5.14-4.62,10-9.17,14.79-13.54l7-6.47c2.28-2.13,4.45-4.26,6.63-6.33l12.52-12c2-1.91,3.91-3.84,5.78-5.71l5.47-5.5,10.2-10.24,16.7-17.55,3.5-3.69,3.11-3.45,5.4-6c6.46-7.15,29.93-32.91,29.93-32.91v67.41l-21,15.29-10.79,10.39-5.79,5.57c-2,1.9-4,3.85-6.11,5.79l-13.21,12.15c-2.29,2.1-4.59,4.26-7,6.41l-7.4,6.54c-5,4.41-10.16,9-15.56,13.67L4873,626.71l-4.35,3.68-4.49,3.67-9.17,7.47-9.38,7.64-9.78,7.68c-26.3,20.74-55.6,42.65-87.72,65s-66.83,45.19-103.73,68-75.93,45.58-116.44,67.89-82.46,44.22-125.09,65.37-86,41.54-129.2,61-86.28,37.89-128.43,55.16-83.28,33.46-122.66,48.3-76.9,28.46-111.8,40.64c-69.78,24.4-128.92,43.24-170.61,55.94-20.84,6.36-37.33,11.17-48.62,14.41l-12.92,3.66Z"/><path class="cls-8" d="M4067,964c-3.06,7.71-7,16.22-11.67,25.34s-10.19,18.81-16.34,28.93c-3.14,5-6.34,10.2-9.86,15.38-1.74,2.6-3.42,5.26-5.28,7.88l-5.56,8c-1.83,2.68-3.81,5.34-5.79,8l-5.95,8.09c-4.16,5.36-8.28,10.82-12.61,16.24-8.67,10.84-17.71,21.72-27.11,32.43s-19,21.29-28.73,31.58c-4.92,5.11-9.7,10.23-14.59,15.2L3909,1175.66c-4.82,4.78-9.67,9.43-14.36,14-2.36,2.28-4.65,4.55-7,6.76l-7,6.53c-4.59,4.29-9,8.49-13.36,12.5L3854.58,1227c-8.08,7.43-15.8,14.07-22.54,20-3.38,3-6.52,5.75-9.47,8.29l-8.19,7-15.52,13.19-11.23-6.43,14.27-13.76,7.52-7.25c2.72-2.65,5.58-5.55,8.69-8.63,6.16-6.17,13.23-13.08,20.6-20.78l11.59-12c4-4.15,8-8.49,12.13-12.92l6.31-6.74c2.13-2.28,4.19-4.63,6.33-7,4.23-4.71,8.61-9.5,13-14.42s8.64-10,13.06-15,8.64-10.33,13-15.55c8.64-10.51,17.21-21.26,25.43-32.12s16.15-21.82,23.65-32.68c3.74-5.44,7.27-10.89,10.83-16.24q2.55-4,5.06-8c1.68-2.66,3.37-5.29,4.9-7.94s3.13-5.26,4.68-7.85,2.94-5.2,4.39-7.75c2.93-5.09,5.54-10.14,8.11-15,5-9.82,9.46-19.14,13-27.81q1.44-3.45,2.73-6.75,28.56-13.56,56.85-27.78C4072.11,950.47,4069.88,956.84,4067,964Z"/><path class="cls-7" d="M3608.75,1315.46l17.76-3.75,9.53-2,9.88-2.28,43.53-10,24-5.54c8.25-1.91,16.76-3.81,25.37-6l54.39-13.59,14.36-3.59,7.29-1.82c2.44-.61,4.9-1.22,7.33-1.89l29.84-8.05,30.85-8.32,15.79-4.26c2.64-.72,5.32-1.41,8-2.17l8-2.31,65.5-19c2.79-.81,5.61-1.6,8.4-2.45l8.35-2.59,16.85-5.23,34.15-10.59,17.3-5.37,17.24-5.69,34.83-11.53c23.48-7.56,46.71-16,70.28-24.26l17.69-6.23c2.95-1.05,5.93-2.05,8.85-3.15l8.77-3.28,35.2-13.16,17.65-6.6,4.42-1.65,4.36-1.73,8.73-3.45,34.93-13.83c5.81-2.31,11.66-4.58,17.44-6.93l17.21-7.2,34.37-14.36c2.85-1.2,5.73-2.38,8.56-3.6l8.44-3.72,16.84-7.43c11.19-5,22.42-9.83,33.48-14.81,43.95-20.25,86.89-40.49,127.11-61.33l15.09-7.72,7.49-3.83,7.34-3.93,29-15.52,7.15-3.83c2.37-1.27,4.67-2.6,7-3.9l13.83-7.76,13.67-7.67c2.27-1.26,4.52-2.53,6.77-3.79s4.42-2.58,6.62-3.86l25.95-15.21,6.36-3.73,6.21-3.79,12.24-7.5,12-7.36c2-1.23,4-2.42,5.92-3.65l5.77-3.69,22.53-14.39,2.75-1.75L4808,856l5.32-3.54,10.47-7,10.23-6.8,9.78-6.77c6.42-4.47,12.74-8.78,18.76-13l17.35-12.51,4.18-3,4-3,7.81-5.86c5.13-3.84,10.09-7.52,14.67-11.15l13.3-10.37,11.82-9.56c14.8-12.14,25.93-21.84,33.05-28.39,1.83-1.64,3.28-3,4.62-4.28l1.8-1.69,1.22-1.19.3-.29V851.4l-8.5,6-4.45,3.11-4.59,3.11L4940,876.5c-6.6,4.39-13.49,8.8-20.51,13.38l-10.68,6.93-11.12,7-11.38,7.1-5.78,3.61-2.92,1.81-3,1.79-24.37,14.59-6.24,3.74c-2.09,1.25-4.24,2.45-6.38,3.69l-13,7.44-13.19,7.56-6.67,3.82-6.84,3.76L4770.19,978c-2.36,1.28-4.69,2.6-7.09,3.87l-7.24,3.8-14.61,7.67-14.79,7.76c-2.48,1.3-4.94,2.63-7.47,3.9l-7.62,3.81-30.84,15.47-7.82,3.9-7.95,3.81-16,7.65c-42.73,20.69-88.1,40.64-134.44,60.52-11.66,4.89-23.47,9.65-35.25,14.51l-17.72,7.26-8.87,3.64c-3,1.19-6,2.33-9,3.51l-36.06,14-18.06,7c-6.06,2.29-12.18,4.48-18.27,6.73l-36.55,13.4-9.13,3.34-4.56,1.68-4.61,1.59-18.44,6.37-36.74,12.69c-3.05,1.05-6.11,2.1-9.15,3.16s-6.15,2-9.22,3l-18.43,6c-24.54,7.91-48.73,16-73.11,23.21l-36.17,11-17.91,5.42-17.93,5.09-35.39,10-17.45,4.94-8.65,2.46c-2.89.8-5.8,1.54-8.68,2.31l-67.72,17.85-8.22,2.17c-2.73.72-5.5,1.36-8.22,2l-16.29,4-31.83,7.77-30.76,7.5c-2.51.63-5,1.19-7.55,1.76l-7.5,1.68-14.78,3.32-56,12.58c-8.86,2.06-17.6,3.8-26.08,5.54l-24.68,5.08-44.68,9.18-10.14,2.09-9.77,1.83-18.2,3.4-9.65,1.8-44.77-38.83Z"/><path class="cls-8" d="M3621.56,1298.42c22.89-4.72,50.54-10.81,82.16-18s67.11-15.66,105.53-25.53c38.49-9.71,79.83-20.93,123.22-33.37l16.35-4.74c5.48-1.6,11-3.15,16.54-4.85l33.54-10.1c11.27-3.47,22.6-7.07,34.07-10.65l8.62-2.71,8.61-2.79q8.61-2.82,17.32-5.64c46.34-15.18,93.67-31.69,141.06-49.43s94.8-36.7,141.37-56.66l8.74-3.73,8.68-3.81,17.34-7.61c11.53-5.09,22.92-10.33,34.36-15.48l17-7.9c5.64-2.64,11.32-5.22,16.88-7.92,11.16-5.38,22.37-10.63,33.31-16.1,44-21.63,86.42-43.82,126.34-66.3l14.9-8.4,14.63-8.44c9.74-5.57,19.17-11.28,28.6-16.84,18.66-11.28,36.83-22.39,54.1-33.53,8.73-5.5,17.11-11.09,25.47-16.53q6.19-4.12,12.28-8.21l6.07-4,5.95-4.08c15.86-10.76,30.82-21.43,45.07-31.73s27.56-20.41,40.11-30.09,24.17-19,34.93-27.9c21.52-17.76,39.5-33.67,53.79-47,12-11.14,21.34-20.45,28.19-27.49V731.2c-14.12,12.68-31.2,27.32-51.16,43.41-11.18,9-23.29,18.45-36.21,28.28s-26.8,20-41.48,30.41-30.14,21.15-46.48,32l-6.13,4.1-6.24,4.09-12.64,8.25c-8.6,5.46-17.23,11.09-26.19,16.62-17.77,11.18-36.42,22.34-55.57,33.64-9.68,5.57-19.35,11.3-29.34,16.87l-15,8.46L4635,965.72c-40.9,22.49-84.29,44.64-129.24,66.2-11.18,5.45-22.63,10.69-34,16-5.68,2.69-11.48,5.26-17.23,7.89l-17.32,7.86c-11.67,5.12-23.29,10.33-35,15.39l-17.68,7.56-8.84,3.78-8.91,3.7c-47.45,19.82-95.72,38.61-143.89,56.14s-96.26,33.82-143.28,48.76l-17.58,5.55-8.73,2.75-8.74,2.66c-11.64,3.52-23.13,7.06-34.56,10.46l-34,9.93c-5.58,1.66-11.21,3.18-16.76,4.75l-16.57,4.64c-44,12.19-85.81,23.16-124.75,32.63s-74.81,17.77-106.72,24.85-59.88,12.86-83,17.43c-23.05,4.73-41.29,8.1-53.69,10.48h0l-1.92-16.72C3584.53,1306.05,3601.14,1302.8,3621.56,1298.42Z"/><path class="cls-7" d="M2003.15,1511.87l34.81,1.36,41.81,1.64c8.22.36,17.08.58,26.52.86l30.07.87,33.48,1c11.71.29,24,.48,36.75.74l39.88.76,10.44.2,10.63.09,21.8.21,45.7.42c15.7.07,31.84,0,48.41,0h25.17l12.81,0,13-.13,53.36-.55,13.69-.15,13.84-.27,28.08-.56c18.9-.39,38.16-.7,57.72-1.36l59.69-1.78,61.49-2.4c83.11-3.56,170.65-8.51,260.95-15.24s183.36-15.21,277.53-25.6,189.43-22.65,284.15-36.67,188.94-29.74,281-47.1l34.42-6.53,8.58-1.63,8.54-1.7,17.06-3.38c11.36-2.26,22.71-4.46,34-6.76l33.7-7,16.77-3.46,16.66-3.58,33.16-7.11,32.83-7.28c10.89-2.44,21.77-4.81,32.52-7.33,86.25-19.74,168.94-40.28,246.52-61.26,38.84-10.39,76.33-21,112.51-31.43,18-5.3,35.8-10.44,53.11-15.7s34.3-10.41,50.9-15.53c33.12-10.34,64.76-20.41,94.6-30.35l11.14-3.67,10.94-3.69,21.44-7.25c14-4.84,27.69-9.49,40.82-14.15,52.63-18.47,97.8-35.47,134.58-49.86s65.11-26.26,84.13-34.47c9.5-4.11,16.67-7.29,21.43-9.43l.46-.21v71.11c-17.91,7.19-40.15,15.88-66.41,25.72-38.21,14.31-84.92,31.09-139.13,49.24-13.53,4.58-27.59,9.14-42,13.89l-22,7.1-11.25,3.61-11.45,3.59c-30.66,9.73-63.12,19.54-97.09,29.62-17,5-34.37,10.08-52.16,15.1s-35.91,10.1-54.38,15.23c-37,10.1-75.35,20.38-115,30.4-79.26,20.24-163.62,40-251.5,58.79-11,2.41-22,4.67-33.13,7l-33.43,6.93-33.76,6.75-17,3.4-17.06,3.28-34.29,6.58c-11.46,2.18-23,4.25-34.55,6.39l-17.35,3.19L3885,1424l-8.72,1.53-35,6.15c-93.52,16.32-189.16,30.93-285.2,43.84s-192.55,24-287.84,33.22-189.36,16.55-280.55,22.12-179.51,9.4-263.3,11.87l-62,1.59-60.14,1c-19.71.39-39.1.45-58.13.59l-28.27.18-13.93.1-13.79,0-53.7-.15-13,0-12.89-.16-25.32-.32c-16.67-.23-32.9-.38-48.68-.66l-45.95-1-21.92-.49-10.68-.25-10.49-.33-40.07-1.3c-12.84-.43-25.16-.78-36.92-1.23l-33.62-1.42-30.2-1.28c-9.48-.41-18.37-.75-26.62-1.22l-42-2.2-34.93-1.84Z"/><path class="cls-8" d="M2002.64,1500.42l34.84,1.48,41.85,1.78c8.23.39,17.09.64,26.54,1l30.11,1,33.51,1.08c11.73.34,24,.56,36.8.87l39.92.89,10.46.24,10.64.13,21.83.27,45.76.58c15.72.12,31.89.11,48.48.18l25.2.07,12.84,0,13-.09,53.45-.37,13.72-.1,13.86-.23,28.13-.46c18.93-.32,38.22-.57,57.82-1.17l59.8-1.58,61.61-2.2c83.28-3.28,171-8,261.54-14.39s183.85-14.63,278.29-24.73,190-22.06,285.09-35.8,189.62-29.18,282-46.28l34.56-6.43,8.61-1.61,8.59-1.67,17.13-3.33c11.4-2.23,22.8-4.4,34.12-6.67l33.84-6.86,16.85-3.41,16.74-3.53,33.31-7,33-7.2c10.94-2.4,21.86-4.75,32.67-7.24,86.66-19.52,169.77-39.84,247.77-60.64,39.06-10.3,76.77-20.84,113.15-31.17,18.14-5.25,36-10.36,53.43-15.58s34.51-10.34,51.22-15.42c33.33-10.28,65.18-20.28,95.23-30.17l11.21-3.65,11-3.67,21.59-7.21c14.13-4.82,27.89-9.45,41.12-14.09,53-18.39,98.59-35.33,135.73-49.7s65.81-26.25,85.13-34.49c4.06-1.74,7.69-3.3,10.92-4.71v35.29c-19.2,7.9-44.82,18.13-76.38,30.09-37.85,14.33-84.17,31.17-138,49.39-13.43,4.6-27.38,9.19-41.72,14l-21.89,7.13-11.18,3.64-11.36,3.61c-30.45,9.78-62.71,19.66-96.47,29.8-16.91,5-34.15,10.16-51.84,15.21s-35.7,10.18-54.06,15.35c-36.8,10.18-74.93,20.55-114.4,30.66-78.84,20.43-162.78,40.34-250.24,59.41-10.92,2.44-21.94,4.72-33,7.07l-33.28,7-33.61,6.85-16.89,3.44-17,3.32-34.13,6.68c-11.42,2.21-22.92,4.31-34.41,6.48l-17.28,3.24-8.65,1.62-8.69,1.56-34.84,6.24c-93.14,16.59-188.42,31.47-284.14,44.67s-191.9,24.58-286.9,34.09-188.83,17.13-279.8,23-179.09,10-262.71,12.72l-61.85,1.79-60,1.2c-19.68.47-39,.59-58,.79l-28.22.28-13.91.14H2488l-53.62,0h-13l-12.87-.11-25.28-.24c-16.64-.17-32.86-.26-48.61-.49l-45.89-.88-21.88-.42-10.67-.21-10.48-.3-40-1.16c-12.83-.39-25.13-.7-36.89-1.11l-33.58-1.31-30.17-1.18c-9.46-.37-18.34-.68-26.59-1.13l-41.92-2-34.91-1.72Z"/><polygon class="cls-8" points="3376.87 790.5 3374.78 779.74 3347.02 760.33 4075.18 0 4008.55 0 3335.91 745.4 3327.62 763.08 3376.87 790.5"/><polygon class="cls-7" points="3335.24 754.85 4033.14 0 4089.46 0 3352.57 761.73 3397.19 785.9 3380.39 792.05 3337.56 768.53 3327.62 763.08 3335.24 754.85"/><polygon class="cls-5" points="2032.57 1701.08 1967.52 1701.08 1913.57 1466.44 2081.76 1468.2 2032.57 1701.08"/><rect class="cls-7" x="1911.98" y="1452.87" width="168.19" height="14.01"/><rect class="cls-7" x="1802.5" y="1430.11" width="393.5" height="14.01"/><path class="cls-5" d="M2238.84,1402.53c0,8.71-12.79,15.76-28.56,15.76H1796.15c-15.77,0-28.56-7-28.56-15.76V1301c0-8.7,12.79-15.76,28.56-15.76h414.13c15.77,0,28.56,7.06,28.56,15.76Z"/><path class="cls-7" d="M1851.69,1389.4h-7.94c-18.37,0-33.32-8.25-33.32-18.39v-41.15c0-10.13,15-18.38,33.32-18.38h7.94c18.37,0,33.32,8.25,33.32,18.38V1371C1885,1381.15,1870.06,1389.4,1851.69,1389.4Zm-7.94-72.67c-13.12,0-23.8,5.89-23.8,13.13V1371c0,7.24,10.68,13.14,23.8,13.14h7.94c13.12,0,23.8-5.9,23.8-13.14v-41.15c0-7.24-10.68-13.13-23.8-13.13Z"/><path class="cls-7" d="M1940.54,1389.4h-7.93c-18.37,0-33.32-8.25-33.32-18.39v-41.15c0-10.13,15-18.38,33.32-18.38h7.93c18.38,0,33.32,8.25,33.32,18.38V1371C1973.86,1381.15,1958.92,1389.4,1940.54,1389.4Zm-7.93-72.67c-13.13,0-23.8,5.89-23.8,13.13V1371c0,7.24,10.67,13.14,23.8,13.14h7.93c13.13,0,23.8-5.9,23.8-13.14v-41.15c0-7.24-10.67-13.13-23.8-13.13Z"/><path class="cls-7" d="M2081.76,1389.4h-7.94c-18.37,0-33.32-8.25-33.32-18.39v-41.15c0-10.13,14.95-18.38,33.32-18.38h7.94c18.37,0,33.32,8.25,33.32,18.38V1371C2115.08,1381.15,2100.13,1389.4,2081.76,1389.4Zm-7.94-72.67c-13.12,0-23.8,5.89-23.8,13.13V1371c0,7.24,10.68,13.14,23.8,13.14h7.94c13.12,0,23.8-5.9,23.8-13.14v-41.15c0-7.24-10.68-13.13-23.8-13.13Z"/><path class="cls-7" d="M2170.61,1389.4h-7.93c-18.38,0-33.32-8.25-33.32-18.39v-41.15c0-10.13,14.94-18.38,33.32-18.38h7.93c18.38,0,33.32,8.25,33.32,18.38V1371C2203.93,1381.15,2189,1389.4,2170.61,1389.4Zm-7.93-72.67c-13.13,0-23.8,5.89-23.8,13.13V1371c0,7.24,10.67,13.14,23.8,13.14h7.93c13.13,0,23.8-5.9,23.8-13.14v-41.15c0-7.24-10.67-13.13-23.8-13.13Z"/><path class="cls-7" d="M2022.26,1336.87c0,3.87-5.69,7-12.7,7h0c-7,0-12.69-3.13-12.69-7h0c0-3.87,5.68-7,12.69-7h0c7,0,12.7,3.14,12.7,7Z"/><path class="cls-7" d="M2022.26,1364.88c0,3.87-5.69,7-12.7,7h0c-7,0-12.69-3.14-12.69-7h0c0-3.86,5.68-7,12.69-7h0c7,0,12.7,3.14,12.7,7Z"/><path class="cls-7" d="M-106.38,1752.64q263.94-13,524.48-22.62c347.22-12.87,689.25-21.35,1024.2-26s662.85-5.36,981.94-3.15,629.41,7.7,929.26,15.89,589.27,19.13,866.62,32.09q208,9.69,406.8,20.89,178.83,10.11,349.74,21v-58.67q-167.92-5.67-343.2-10.36-200.1-5.43-409.25-9.74-418.14-8.7-869.52-13.8-450.66-5.2-930.25-7.54-478.89-2.3-982.51-1.46-502.93.74-1026.52,5-261.47,2.21-527.23,6t-535.13,9.59q-163.42,3.59-328,8.29v85.72q169.32-11.58,337.85-21.9Q-370.44,1765.59-106.38,1752.64Z"/><path class="cls-7" d="M2002.91,1581.55l132.77,3.42,70,1.79,82.44,1.1,93.74,1.25c16.5.31,33.43.23,50.76.25l53.17,0,55.42,0,28.52,0h14.45c4.84,0,9.69-.11,14.57-.16l120.85-1.48,31.32-.39c5.25-.08,10.52-.09,15.8-.22l15.9-.41,64.55-1.63c43.51-1.17,88-2,133.13-4l68.28-2.64,34.51-1.34c5.78-.24,11.56-.42,17.34-.7l17.38-.91,70-3.66,35.27-1.84,17.7-.92c5.9-.33,11.82-.56,17.72-1l142.69-9.42,143.47-11.49,71.61-6.75,35.75-3.37c11.9-1.15,23.83-2.16,35.66-3.53l71-7.71,35.33-3.84,8.81-1,8.77-1.08,17.52-2.17c46.66-5.84,93.06-11.17,138.53-17.78l67.88-9.4,66.61-10.25,32.89-5.06c5.47-.8,10.88-1.74,16.29-2.66l16.18-2.74,63.91-10.82,7.89-1.34c2.63-.45,5.23-1,7.84-1.43l15.59-2.89,30.91-5.73,30.54-5.65,7.57-1.4c2.52-.47,5-1,7.51-1.49l14.93-3,58.66-11.81c2.4-.49,4.82-1,7.21-1.46l7.13-1.56,14.19-3.09,28-6.1,27.56-6c9.06-2.06,18-4.2,26.88-6.27l26.35-6.18,13-3c4.3-1,8.62-2,12.83-3.06,67.85-16.68,129.22-33.38,182.92-49.15,53.58-16,99.37-31.1,136.42-44.22l26.13-9.45,22.7-8.64c3.55-1.31,6.84-2.67,10.05-4l9.19-3.68c4.92-1.93,9.31-3.79,13.34-5.49v69.26l-17.06,6.2-27.69,9.56c-39.14,13.21-87.08,28.28-142.74,44-55.76,15.52-119.17,31.81-189,47.93-4.34,1.06-8.77,2-13.19,3l-13.34,2.94-27.08,5.95c-9.12,2-18.29,4.05-27.6,6l-28.24,5.74-28.72,5.84-14.53,3-7.31,1.49c-2.44.49-4.9.93-7.37,1.39l-60,11.22-15.26,2.86c-2.55.46-5.1,1-7.68,1.41l-7.73,1.32-31.16,5.33-31.54,5.4-15.9,2.72c-2.66.45-5.32.92-8,1.35l-8,1.25-65.1,10.11-16.48,2.56c-5.5.86-11,1.74-16.57,2.48l-33.45,4.68-67.72,9.47-68.92,8.61c-46.17,6.06-93.2,10.83-140.49,16.11l-17.75,2-8.89,1-8.93.85-35.76,3.4-71.81,6.83c-12,1.22-24,2.08-36.07,3.08l-36.15,2.92-72.38,5.84-144.85,9.66-143.89,7.57c-6,.35-11.92.5-17.87.76l-17.83.69-35.54,1.38-70.51,2.74-17.5.68c-5.83.21-11.65.31-17.46.47l-34.74.89-68.71,1.74c-45.42,1.41-90.13,1.62-133.88,2.21l-64.88.78-16,.2c-5.31,0-10.6,0-15.88,0l-31.45,0-121.37-.13c-4.9,0-9.78,0-14.63,0l-14.51-.21L2541,1617l-55.62-.78-53.34-.75c-17.38-.25-34.37-.4-50.92-.93l-94-2.5-82.63-2.2-70.1-2.74-133-5.2Z"/><ellipse class="cls-18" cx="1888.58" cy="1631.48" rx="13.09" ry="11.82"/><ellipse class="cls-18" cx="1792.19" cy="1660.37" rx="13.09" ry="11.82"/><path class="cls-18" d="M1669.62,1638.05c0,6.52-5.86,11.82-13.09,11.82s-13.09-5.3-13.09-11.82,5.86-11.82,13.09-11.82S1669.62,1631.52,1669.62,1638.05Z"/><ellipse class="cls-18" cx="1278.1" cy="1559.25" rx="13.09" ry="11.82"/><path class="cls-18" d="M1750.54,1569.76c0,6.52-5.86,11.82-13.09,11.82s-13.09-5.3-13.09-11.82,5.86-11.82,13.09-11.82S1750.54,1563.23,1750.54,1569.76Z"/><path class="cls-18" d="M1403.05,1668.25c0,6.53-5.86,11.82-13.09,11.82s-13.09-5.29-13.09-11.82,5.86-11.82,13.09-11.82S1403.05,1661.72,1403.05,1668.25Z"/><path class="cls-19" d="M1438.75,1666.94c0,6.53-5.86,11.82-13.09,11.82s-13.09-5.29-13.09-11.82,5.86-11.82,13.09-11.82S1438.75,1660.41,1438.75,1666.94Z"/><ellipse class="cls-19" cx="1598.22" cy="1561.88" rx="13.09" ry="11.82"/><path class="cls-19" d="M498.27,1619a13.91,13.91,0,1,1-13.9-13.79A13.84,13.84,0,0,1,498.27,1619Z"/><path class="cls-19" d="M550.64,1622.94a13.91,13.91,0,1,1-13.91-13.79A13.85,13.85,0,0,1,550.64,1622.94Z"/><path class="cls-19" d="M172.21,1582.23a13.91,13.91,0,1,1-13.91-13.79A13.84,13.84,0,0,1,172.21,1582.23Z"/><path class="cls-19" d="M334.05,1596.68a13.91,13.91,0,1,1-13.9-13.79A13.85,13.85,0,0,1,334.05,1596.68Z"/><path class="cls-19" d="M296,1591.43a13.91,13.91,0,1,1-13.91-13.79A13.84,13.84,0,0,1,296,1591.43Z"/><path class="cls-18" d="M251.93,1626.88a13.91,13.91,0,1,1-13.9-13.79A13.84,13.84,0,0,1,251.93,1626.88Z"/><path class="cls-20" d="M307.87,1657.09A13.91,13.91,0,1,1,294,1643.3,13.84,13.84,0,0,1,307.87,1657.09Z"/><path class="cls-19" d="M347.14,1659.06a13.91,13.91,0,1,1-13.91-13.79A13.84,13.84,0,0,1,347.14,1659.06Z"/><path class="cls-20" d="M359,1628.85a13.91,13.91,0,1,1-13.9-13.79A13.84,13.84,0,0,1,359,1628.85Z"/><path class="cls-19" d="M798.16,1629.51a13.91,13.91,0,1,1-13.91-13.79A13.85,13.85,0,0,1,798.16,1629.51Z"/><path class="cls-19" d="M531.6,1668.91a13.91,13.91,0,1,1-13.91-13.79A13.86,13.86,0,0,1,531.6,1668.91Z"/><path class="cls-19" d="M688.68,1668.91a13.91,13.91,0,1,1-13.91-13.79A13.86,13.86,0,0,1,688.68,1668.91Z"/><path class="cls-19" d="M1107.56,1662.34a13.91,13.91,0,1,1-13.91-13.79A13.85,13.85,0,0,1,1107.56,1662.34Z"/><path class="cls-20" d="M1329.27,1634.11c0,6.53-5.86,11.82-13.09,11.82s-13.09-5.29-13.09-11.82,5.86-11.82,13.09-11.82S1329.27,1627.58,1329.27,1634.11Z"/><path class="cls-21" d="M1193.61,1639.36c0,6.53-5.86,11.82-13.09,11.82s-13.09-5.29-13.09-11.82,5.86-11.82,13.09-11.82S1193.61,1632.83,1193.61,1639.36Z"/><ellipse class="cls-21" cx="1092.46" cy="1551.37" rx="13.09" ry="11.82"/><path class="cls-18" d="M912.77,1560.56c0,6.53-5.86,11.82-13.09,11.82s-13.09-5.29-13.09-11.82,5.86-11.82,13.09-11.82S912.77,1554,912.77,1560.56Z"/><path class="cls-18" d="M793.77,1530.36c0,6.53-5.86,11.82-13.09,11.82s-13.09-5.29-13.09-11.82,5.86-11.82,13.09-11.82S793.77,1523.83,793.77,1530.36Z"/><path class="cls-21" d="M460.57,1529.05c0,6.52-5.86,11.81-13.09,11.81s-13.09-5.29-13.09-11.81,5.86-11.82,13.09-11.82S460.57,1522.52,460.57,1529.05Z"/><path class="cls-21" d="M417.73,1485.71c0,6.52-5.86,11.82-13.09,11.82s-13.09-5.3-13.09-11.82,5.86-11.82,13.09-11.82S417.73,1479.18,417.73,1485.71Z"/><ellipse class="cls-21" cx="209.47" cy="1456.81" rx="13.09" ry="11.82"/><path class="cls-18" d="M144,1492.27c0,6.53-5.86,11.82-13.09,11.82s-13.09-5.29-13.09-11.82,5.86-11.82,13.09-11.82S144,1485.75,144,1492.27Z"/><path class="cls-18" d="M103.56,1489.65c0,6.52-5.86,11.82-13.09,11.82s-13.09-5.3-13.09-11.82,5.86-11.82,13.09-11.82S103.56,1483.12,103.56,1489.65Z"/><path class="cls-18" d="M125,1215.17c0,6.53-5.86,11.82-13.09,11.82s-13.09-5.29-13.09-11.82,5.86-11.82,13.09-11.82S125,1208.64,125,1215.17Z"/><path class="cls-18" d="M82.14,1179.71c0,6.53-5.86,11.82-13.09,11.82S56,1186.24,56,1179.71s5.86-11.82,13.09-11.82S82.14,1173.18,82.14,1179.71Z"/><ellipse class="cls-20" cx="146.8" cy="1168.77" rx="13.09" ry="11.82"/><path class="cls-18" d="M232.08,1238.81c0,6.53-5.86,11.82-13.09,11.82s-13.09-5.29-13.09-11.82S211.76,1227,219,1227,232.08,1232.28,232.08,1238.81Z"/><path class="cls-18" d="M263,1248c0,6.53-5.86,11.82-13.09,11.82s-13.09-5.29-13.09-11.82,5.86-11.82,13.09-11.82S263,1241.47,263,1248Z"/><path class="cls-18" d="M501,1395.09c0,6.53-5.86,11.82-13.09,11.82s-13.09-5.29-13.09-11.82,5.86-11.82,13.09-11.82S501,1388.56,501,1395.09Z"/><path class="cls-18" d="M410.59,1378c0,6.53-5.86,11.82-13.09,11.82s-13.09-5.29-13.09-11.82,5.86-11.82,13.09-11.82S410.59,1371.49,410.59,1378Z"/><path class="cls-20" d="M291.58,1353.07c0,6.52-5.86,11.81-13.09,11.81s-13.09-5.29-13.09-11.81,5.86-11.82,13.09-11.82S291.58,1346.54,291.58,1353.07Z"/><path class="cls-20" d="M8.36,1332.05c0,6.53-5.86,11.82-13.09,11.82s-13.09-5.29-13.09-11.82,5.86-11.82,13.09-11.82S8.36,1325.53,8.36,1332.05Z"/><ellipse class="cls-18" cx="33.35" cy="1338.62" rx="13.09" ry="11.82"/><ellipse class="cls-20" cx="204.71" cy="1362.26" rx="13.09" ry="11.82"/><path class="cls-18" d="M248.74,1366.2c0,6.53-5.86,11.82-13.09,11.82s-13.09-5.29-13.09-11.82,5.86-11.82,13.09-11.82S248.74,1359.67,248.74,1366.2Z"/><ellipse class="cls-18" cx="349.9" cy="1396.4" rx="13.09" ry="11.82"/><ellipse class="cls-18" cx="437.96" cy="1410.85" rx="13.09" ry="11.82"/><ellipse class="cls-20" cx="128.55" cy="1328.11" rx="13.09" ry="11.82"/><ellipse class="cls-18" cx="321.33" cy="1216.48" rx="13.09" ry="11.82"/><ellipse class="cls-20" cx="235.65" cy="1202.04" rx="13.09" ry="11.82"/><path class="cls-20" d="M360.61,1254.57c0,6.53-5.87,11.82-13.09,11.82s-13.09-5.29-13.09-11.82,5.86-11.82,13.09-11.82S360.61,1248,360.61,1254.57Z"/><ellipse class="cls-20" cx="288.01" cy="1241.44" rx="13.09" ry="11.82"/><path class="cls-18" d="M98.8,1085.16c0,6.52-5.86,11.82-13.09,11.82s-13.09-5.3-13.09-11.82,5.86-11.82,13.09-11.82S98.8,1078.63,98.8,1085.16Z"/><ellipse class="cls-18" cx="138.07" cy="1104.86" rx="13.09" ry="11.82"/><path class="cls-18" d="M179.72,1118c0,6.53-5.86,11.82-13.09,11.82s-13.09-5.29-13.09-11.82,5.86-11.82,13.09-11.82S179.72,1111.46,179.72,1118Z"/><path class="cls-18" d="M196.38,1079.9c0,6.53-5.86,11.82-13.09,11.82s-13.09-5.29-13.09-11.82,5.86-11.82,13.09-11.82S196.38,1073.38,196.38,1079.9Z"/><path class="cls-18" d="M144,1060.2c0,6.53-5.86,11.82-13.09,11.82s-13.09-5.29-13.09-11.82,5.86-11.82,13.09-11.82S144,1053.68,144,1060.2Z"/><ellipse class="cls-18" cx="57.15" cy="1054.95" rx="13.09" ry="11.82"/><ellipse class="cls-18" cx="116.65" cy="1078.59" rx="13.09" ry="11.82"/><path class="cls-18" d="M265.4,1146.88c0,6.53-5.86,11.82-13.09,11.82s-13.09-5.29-13.09-11.82,5.86-11.82,13.09-11.82S265.4,1140.35,265.4,1146.88Z"/><path class="cls-21" d="M258.26,1489.65c0,6.52-5.86,11.82-13.09,11.82s-13.09-5.3-13.09-11.82,5.86-11.82,13.09-11.82S258.26,1483.12,258.26,1489.65Z"/><ellipse class="cls-21" cx="595.04" cy="1410.85" rx="13.09" ry="11.82"/><ellipse class="cls-18" cx="645.02" cy="1439.74" rx="13.09" ry="11.82"/><ellipse class="cls-20" cx="687.86" cy="1444.99" rx="13.09" ry="11.82"/><path class="cls-21" d="M1018.61,1466.91c0,5.3-4.76,9.6-10.64,9.6s-10.63-4.3-10.63-9.6,4.76-9.6,10.63-9.6S1018.61,1461.61,1018.61,1466.91Z"/><path class="cls-21" d="M1900.4,1488.33c0,5.31-4.76,9.61-10.63,9.61s-10.64-4.3-10.64-9.61,4.76-9.6,10.64-9.6S1900.4,1483,1900.4,1488.33Z"/><path class="cls-21" d="M1712.38,1488.33c0,5.31-4.76,9.61-10.63,9.61s-10.64-4.3-10.64-9.61,4.76-9.6,10.64-9.6S1712.38,1483,1712.38,1488.33Z"/><path class="cls-21" d="M1588.62,1500.15c0,5.31-4.76,9.61-10.63,9.61s-10.64-4.3-10.64-9.61,4.76-9.6,10.64-9.6S1588.62,1494.85,1588.62,1500.15Z"/><path class="cls-21" d="M1505.32,1488.33c0,5.31-4.76,9.61-10.63,9.61s-10.64-4.3-10.64-9.61,4.76-9.6,10.64-9.6S1505.32,1483,1505.32,1488.33Z"/><ellipse class="cls-21" cx="1328.08" cy="1488.33" rx="10.64" ry="9.6"/><path class="cls-21" d="M1226.86,1481.77c0,5.3-4.76,9.6-10.64,9.6s-10.63-4.3-10.63-9.6,4.76-9.61,10.63-9.61S1226.86,1476.46,1226.86,1481.77Z"/><path class="cls-21" d="M1107.86,1480.45c0,5.31-4.76,9.61-10.64,9.61s-10.63-4.3-10.63-9.61,4.76-9.6,10.63-9.6S1107.86,1475.15,1107.86,1480.45Z"/><path class="cls-21" d="M1445.82,1575c0,5.3-4.76,9.6-10.64,9.6s-10.63-4.3-10.63-9.6,4.76-9.6,10.63-9.6S1445.82,1569.71,1445.82,1575Z"/><path class="cls-21" d="M1478,1575c0,5.3-4.76,9.6-10.63,9.6s-10.64-4.3-10.64-9.6,4.77-9.6,10.64-9.6S1478,1569.71,1478,1575Z"/><path class="cls-21" d="M787.82,1439.74c0,5.31-4.76,9.61-10.64,9.61s-10.63-4.3-10.63-9.61,4.76-9.6,10.63-9.6S787.82,1434.44,787.82,1439.74Z"/><path class="cls-21" d="M898.49,1454.19c0,5.08-4.56,9.19-10.18,9.19s-10.18-4.11-10.18-9.19,4.56-9.2,10.18-9.2S898.49,1449.11,898.49,1454.19Z"/><path class="cls-18" d="M574.81,1510.66c0,6.53-5.86,11.82-13.09,11.82s-13.09-5.29-13.09-11.82,5.86-11.82,13.09-11.82S574.81,1504.13,574.81,1510.66Z"/><ellipse class="cls-18" cx="2109.92" cy="1631.48" rx="13.09" ry="11.82"/><ellipse class="cls-18" cx="2206.31" cy="1660.37" rx="13.09" ry="11.82"/><path class="cls-18" d="M2328.88,1638.05c0,6.52,5.86,11.82,13.09,11.82s13.09-5.3,13.09-11.82-5.86-11.82-13.09-11.82S2328.88,1631.52,2328.88,1638.05Z"/><ellipse class="cls-18" cx="2720.4" cy="1559.25" rx="13.09" ry="11.82"/><path class="cls-18" d="M2248,1569.76c0,6.52,5.86,11.82,13.09,11.82s13.09-5.3,13.09-11.82-5.86-11.82-13.09-11.82S2248,1563.23,2248,1569.76Z"/><path class="cls-18" d="M2595.45,1668.25c0,6.53,5.86,11.82,13.09,11.82s13.09-5.29,13.09-11.82-5.87-11.82-13.09-11.82S2595.45,1661.72,2595.45,1668.25Z"/><path class="cls-18" d="M3746.57,1626.88a13.91,13.91,0,1,0,13.9-13.79A13.84,13.84,0,0,0,3746.57,1626.88Z"/><path class="cls-18" d="M3085.73,1560.56c0,6.53,5.86,11.82,13.09,11.82s13.09-5.29,13.09-11.82-5.86-11.82-13.09-11.82S3085.73,1554,3085.73,1560.56Z"/><path class="cls-18" d="M3204.73,1530.36c0,6.53,5.86,11.82,13.09,11.82s13.09-5.29,13.09-11.82-5.86-11.82-13.09-11.82S3204.73,1523.83,3204.73,1530.36Z"/><path class="cls-18" d="M3854.48,1492.27c0,6.53,5.86,11.82,13.09,11.82s13.09-5.29,13.09-11.82-5.87-11.82-13.09-11.82S3854.48,1485.75,3854.48,1492.27Z"/><path class="cls-18" d="M3894.94,1489.65c0,6.52,5.86,11.82,13.09,11.82s13.09-5.3,13.09-11.82-5.87-11.82-13.09-11.82S3894.94,1483.12,3894.94,1489.65Z"/><path class="cls-18" d="M3873.52,1215.17c0,6.53,5.86,11.82,13.09,11.82s13.09-5.29,13.09-11.82-5.87-11.82-13.09-11.82S3873.52,1208.64,3873.52,1215.17Z"/><path class="cls-18" d="M3916.36,1179.71c0,6.53,5.86,11.82,13.09,11.82s13.09-5.29,13.09-11.82-5.86-11.82-13.09-11.82S3916.36,1173.18,3916.36,1179.71Z"/><ellipse class="cls-18" cx="3779.51" cy="1238.81" rx="13.09" ry="11.82"/><path class="cls-18" d="M3735.47,1248c0,6.53,5.86,11.82,13.1,11.82s13.09-5.29,13.09-11.82-5.87-11.82-13.09-11.82S3735.47,1241.47,3735.47,1248Z"/><path class="cls-18" d="M3497.47,1395.09c0,6.53,5.86,11.82,13.09,11.82s13.09-5.29,13.09-11.82-5.86-11.82-13.09-11.82S3497.47,1388.56,3497.47,1395.09Z"/><path class="cls-18" d="M3587.91,1378c0,6.53,5.86,11.82,13.09,11.82s13.09-5.29,13.09-11.82-5.86-11.82-13.09-11.82S3587.91,1371.49,3587.91,1378Z"/><ellipse class="cls-18" cx="3965.15" cy="1338.62" rx="13.09" ry="11.82"/><path class="cls-18" d="M3749.75,1366.2c0,6.53,5.86,11.82,13.09,11.82s13.09-5.29,13.09-11.82-5.86-11.82-13.09-11.82S3749.75,1359.67,3749.75,1366.2Z"/><path class="cls-18" d="M3635.52,1396.4c0,6.53,5.85,11.82,13.08,11.82s13.09-5.29,13.09-11.82-5.86-11.82-13.09-11.82S3635.52,1389.88,3635.52,1396.4Z"/><ellipse class="cls-18" cx="3560.54" cy="1410.85" rx="13.09" ry="11.82"/><ellipse class="cls-18" cx="3677.16" cy="1216.48" rx="13.09" ry="11.82"/><path class="cls-18" d="M3899.7,1085.16c0,6.52,5.86,11.82,13.09,11.82s13.09-5.3,13.09-11.82-5.87-11.82-13.09-11.82S3899.7,1078.63,3899.7,1085.16Z"/><ellipse class="cls-18" cx="3860.43" cy="1104.86" rx="13.09" ry="11.82"/><path class="cls-18" d="M3818.78,1118c0,6.53,5.86,11.82,13.09,11.82S3845,1124.52,3845,1118s-5.87-11.82-13.09-11.82S3818.78,1111.46,3818.78,1118Z"/><path class="cls-18" d="M3802.12,1079.9c0,6.53,5.86,11.82,13.09,11.82s13.09-5.29,13.09-11.82-5.87-11.82-13.09-11.82S3802.12,1073.38,3802.12,1079.9Z"/><path class="cls-18" d="M3854.48,1060.2c0,6.53,5.86,11.82,13.09,11.82s13.09-5.29,13.09-11.82-5.87-11.82-13.09-11.82S3854.48,1053.68,3854.48,1060.2Z"/><ellipse class="cls-18" cx="3941.35" cy="1054.95" rx="13.09" ry="11.82"/><ellipse class="cls-18" cx="3881.85" cy="1078.59" rx="13.09" ry="11.82"/><path class="cls-18" d="M3733.1,1146.88c0,6.53,5.85,11.82,13.09,11.82s13.09-5.29,13.09-11.82-5.87-11.82-13.09-11.82S3733.1,1140.35,3733.1,1146.88Z"/><ellipse class="cls-18" cx="3353.48" cy="1439.74" rx="13.09" ry="11.82"/><ellipse class="cls-18" cx="3436.78" cy="1510.66" rx="13.09" ry="11.82"/><path class="cls-21" d="M720,1548.74c0,6.53-5.86,11.82-13.09,11.82s-13.09-5.29-13.09-11.82,5.86-11.82,13.09-11.82S720,1542.22,720,1548.74Z"/><path class="cls-20" d="M770,1550.06c0,6.53-5.86,11.82-13.09,11.82s-13.09-5.29-13.09-11.82,5.86-11.82,13.09-11.82S770,1543.53,770,1550.06Z"/><path class="cls-21" d="M841.37,1670.88c0,6.53-5.86,11.82-13.09,11.82s-13.09-5.29-13.09-11.82,5.86-11.82,13.09-11.82S841.37,1664.35,841.37,1670.88Z"/><path class="cls-20" d="M874.69,1670.88c0,6.53-5.86,11.82-13.09,11.82s-13.09-5.29-13.09-11.82,5.86-11.82,13.09-11.82S874.69,1664.35,874.69,1670.88Z"/><path class="cls-19" d="M2566.88,1666.94c0,6.53,5.86,11.82,13.09,11.82s13.09-5.29,13.09-11.82-5.86-11.82-13.09-11.82S2566.88,1660.41,2566.88,1666.94Z"/><ellipse class="cls-19" cx="2407.42" cy="1561.88" rx="13.09" ry="11.82"/><path class="cls-19" d="M3507.37,1619a13.91,13.91,0,1,0,13.9-13.79A13.84,13.84,0,0,0,3507.37,1619Z"/><path class="cls-19" d="M3455,1622.94a13.91,13.91,0,1,0,13.91-13.79A13.85,13.85,0,0,0,3455,1622.94Z"/><path class="cls-19" d="M3833.43,1582.23a13.91,13.91,0,1,0,13.91-13.79A13.84,13.84,0,0,0,3833.43,1582.23Z"/><path class="cls-19" d="M3671.59,1596.68a13.91,13.91,0,1,0,13.91-13.79A13.85,13.85,0,0,0,3671.59,1596.68Z"/><path class="cls-19" d="M3709.67,1591.43a13.91,13.91,0,1,0,13.91-13.79A13.84,13.84,0,0,0,3709.67,1591.43Z"/><path class="cls-20" d="M3697.77,1657.09a13.91,13.91,0,1,0,13.91-13.79A13.84,13.84,0,0,0,3697.77,1657.09Z"/><path class="cls-19" d="M3658.5,1659.06a13.91,13.91,0,1,0,13.9-13.79A13.84,13.84,0,0,0,3658.5,1659.06Z"/><ellipse class="cls-20" cx="3660.5" cy="1628.85" rx="13.91" ry="13.79"/><path class="cls-19" d="M3207.48,1629.51a13.91,13.91,0,1,0,13.91-13.79A13.85,13.85,0,0,0,3207.48,1629.51Z"/><path class="cls-19" d="M3474,1668.91a13.91,13.91,0,1,0,13.91-13.79A13.86,13.86,0,0,0,3474,1668.91Z"/><path class="cls-19" d="M3317,1668.91a13.91,13.91,0,1,0,13.91-13.79A13.86,13.86,0,0,0,3317,1668.91Z"/><path class="cls-19" d="M2898.08,1662.34a13.91,13.91,0,1,0,13.91-13.79A13.85,13.85,0,0,0,2898.08,1662.34Z"/><path class="cls-20" d="M2676.37,1634.11c0,6.53,5.86,11.82,13.09,11.82s13.09-5.29,13.09-11.82-5.87-11.82-13.09-11.82S2676.37,1627.58,2676.37,1634.11Z"/><ellipse class="cls-20" cx="3858.84" cy="1168.77" rx="13.09" ry="11.82"/><ellipse class="cls-20" cx="3727.14" cy="1353.07" rx="13.09" ry="11.82"/><path class="cls-20" d="M3997.28,1332.05c0,6.53,5.86,11.82,13.09,11.82s13.09-5.29,13.09-11.82-5.86-11.82-13.09-11.82S3997.28,1325.53,3997.28,1332.05Z"/><ellipse class="cls-20" cx="3800.93" cy="1362.26" rx="13.09" ry="11.82"/><ellipse class="cls-20" cx="3877.09" cy="1328.11" rx="13.09" ry="11.82"/><ellipse class="cls-20" cx="3769.99" cy="1202.04" rx="13.09" ry="11.82"/><path class="cls-20" d="M3645,1254.57c0,6.53,5.86,11.82,13.1,11.82s13.09-5.29,13.09-11.82-5.87-11.82-13.09-11.82S3645,1248,3645,1254.57Z"/><ellipse class="cls-20" cx="3717.62" cy="1241.44" rx="13.09" ry="11.82"/><ellipse class="cls-20" cx="3317.78" cy="1444.99" rx="13.09" ry="11.82"/><path class="cls-20" d="M3235.67,1550.06c0,6.53,5.86,11.82,13.09,11.82s13.09-5.29,13.09-11.82-5.86-11.82-13.09-11.82S3235.67,1543.53,3235.67,1550.06Z"/><path class="cls-20" d="M3131,1670.88c0,6.53,5.86,11.82,13.09,11.82s13.09-5.29,13.09-11.82-5.86-11.82-13.09-11.82S3131,1664.35,3131,1670.88Z"/><path class="cls-21" d="M915.15,1672.19c0,6.53-5.86,11.82-13.09,11.82S889,1678.72,889,1672.19s5.86-11.82,13.09-11.82S915.15,1665.66,915.15,1672.19Z"/><path class="cls-21" d="M382,1673.51c0,6.52-5.86,11.82-13.09,11.82s-13.09-5.3-13.09-11.82,5.86-11.82,13.09-11.82S382,1667,382,1673.51Z"/><ellipse class="cls-21" cx="1651.77" cy="1669.57" rx="13.09" ry="11.82"/><path class="cls-21" d="M1260.25,1557.94c0,6.52-5.86,11.82-13.09,11.82s-13.09-5.3-13.09-11.82,5.86-11.82,13.09-11.82S1260.25,1551.41,1260.25,1557.94Z"/><path class="cls-21" d="M1807.66,1563.19c0,6.53-5.86,11.82-13.09,11.82s-13.09-5.29-13.09-11.82,5.86-11.82,13.09-11.82S1807.66,1556.66,1807.66,1563.19Z"/><path class="cls-21" d="M2790.61,1639.36c0,6.53,5.86,11.82,13.09,11.82s13.09-5.29,13.09-11.82-5.86-11.82-13.09-11.82S2790.61,1632.83,2790.61,1639.36Z"/><ellipse class="cls-21" cx="2891.76" cy="1551.37" rx="13.09" ry="11.82"/><path class="cls-21" d="M3523.65,1529.05c0,6.52,5.86,11.81,13.09,11.81s13.09-5.29,13.09-11.81-5.86-11.82-13.09-11.82S3523.65,1522.52,3523.65,1529.05Z"/><path class="cls-21" d="M3566.49,1485.71c0,6.52,5.86,11.82,13.09,11.82s13.09-5.3,13.09-11.82-5.86-11.82-13.09-11.82S3566.49,1479.18,3566.49,1485.71Z"/><ellipse class="cls-21" cx="3774.75" cy="1456.81" rx="13.09" ry="11.82"/><path class="cls-21" d="M3990.14,1451.56c0,6.53,5.86,11.82,13.09,11.82s13.09-5.29,13.09-11.82-5.86-11.82-13.09-11.82S3990.14,1445,3990.14,1451.56Z"/><path class="cls-21" d="M3726,1489.65c0,6.52,5.85,11.82,13.09,11.82s13.09-5.3,13.09-11.82-5.87-11.82-13.09-11.82S3726,1483.12,3726,1489.65Z"/><ellipse class="cls-21" cx="3389.18" cy="1410.85" rx="13.09" ry="11.82"/><path class="cls-21" d="M2965.61,1466.91c0,5.3,4.76,9.6,10.64,9.6s10.63-4.3,10.63-9.6-4.76-9.6-10.63-9.6S2965.61,1461.61,2965.61,1466.91Z"/><ellipse class="cls-21" cx="2094.45" cy="1488.33" rx="10.64" ry="9.6"/><ellipse class="cls-21" cx="2282.47" cy="1488.33" rx="10.64" ry="9.6"/><path class="cls-21" d="M2395.6,1500.15c0,5.31,4.76,9.61,10.63,9.61s10.64-4.3,10.64-9.61-4.76-9.6-10.64-9.6S2395.6,1494.85,2395.6,1500.15Z"/><path class="cls-21" d="M2478.9,1488.33c0,5.31,4.76,9.61,10.63,9.61s10.64-4.3,10.64-9.61-4.76-9.6-10.64-9.6S2478.9,1483,2478.9,1488.33Z"/><path class="cls-21" d="M2645.5,1488.33c0,5.31,4.76,9.61,10.64,9.61s10.63-4.3,10.63-9.61-4.76-9.6-10.63-9.6S2645.5,1483,2645.5,1488.33Z"/><path class="cls-21" d="M2757.36,1481.77c0,5.3,4.76,9.6,10.64,9.6s10.63-4.3,10.63-9.6-4.76-9.61-10.63-9.61S2757.36,1476.46,2757.36,1481.77Z"/><path class="cls-21" d="M2876.36,1480.45c0,5.31,4.76,9.61,10.64,9.61s10.63-4.3,10.63-9.61-4.76-9.6-10.63-9.6S2876.36,1475.15,2876.36,1480.45Z"/><path class="cls-21" d="M2538.4,1575c0,5.3,4.76,9.6,10.63,9.6s10.64-4.3,10.64-9.6-4.76-9.6-10.64-9.6S2538.4,1569.71,2538.4,1575Z"/><path class="cls-21" d="M2506.2,1575c0,5.3,4.76,9.6,10.63,9.6s10.64-4.3,10.64-9.6-4.77-9.6-10.64-9.6S2506.2,1569.71,2506.2,1575Z"/><ellipse class="cls-21" cx="3207.04" cy="1439.74" rx="10.64" ry="9.6"/><path class="cls-21" d="M3085.73,1454.19c0,5.08,4.56,9.19,10.18,9.19s10.18-4.11,10.18-9.19-4.56-9.2-10.18-9.2S3085.73,1449.11,3085.73,1454.19Z"/><path class="cls-21" d="M3264.23,1548.74c0,6.53,5.86,11.82,13.09,11.82s13.09-5.29,13.09-11.82-5.86-11.82-13.09-11.82S3264.23,1542.22,3264.23,1548.74Z"/><path class="cls-21" d="M3142.85,1670.88c0,6.53,5.86,11.82,13.09,11.82s13.09-5.29,13.09-11.82-5.86-11.82-13.09-11.82S3142.85,1664.35,3142.85,1670.88Z"/><path class="cls-21" d="M3069.07,1672.19c0,6.53,5.86,11.82,13.09,11.82s13.09-5.29,13.09-11.82-5.86-11.82-13.09-11.82S3069.07,1665.66,3069.07,1672.19Z"/><path class="cls-21" d="M3602.19,1673.51c0,6.52,5.86,11.82,13.09,11.82s13.09-5.3,13.09-11.82-5.86-11.82-13.09-11.82S3602.19,1667,3602.19,1673.51Z"/><ellipse class="cls-21" cx="2332.45" cy="1669.57" rx="13.09" ry="11.82"/><path class="cls-21" d="M2724,1557.94c0,6.52,5.86,11.82,13.09,11.82s13.09-5.3,13.09-11.82-5.86-11.82-13.09-11.82S2724,1551.41,2724,1557.94Z"/><path class="cls-21" d="M2176.56,1563.19c0,6.53,5.86,11.82,13.09,11.82s13.09-5.29,13.09-11.82-5.86-11.82-13.09-11.82S2176.56,1556.66,2176.56,1563.19Z"/><path class="cls-17" d="M4976.66,821.73c-77.73,48.59-370.67,224.83-736.52,359.41-428.38,157.58-613.56,179.08-613.56,179.08l-25.44,31.69s900.33-155.14,1375.52-372.42Z"/><path class="cls-17" d="M4317.67,1035.91c-223.73,86-419,143.31-475,159.23l-3.27-30.24c127.16-38.36,744.43-233.69,1135.68-522.32V245.06S4396.72,791,3787.44,998.48L3816,1171.83l.29-.08,4.77,44.06,16.08-4.38c2.25-.62,228.15-62.53,493.82-164.63,156.1-60,295.28-121.93,413.66-184.11,89.32-46.92,166.89-94.06,232-141V699.82C4790.72,838.58,4523.9,956.64,4317.67,1035.91Z"/></g></g></g></svg>