<?xml version="1.0" encoding="UTF-8"?>
<svg width="200px" height="200px" viewBox="0 0 200 200" version="1.1" xmlns="http://www.w3.org/2000/svg" xmlns:xlink="http://www.w3.org/1999/xlink">
    <!-- Generator: Sketch 54.1 (76490) - https://sketchapp.com -->
    <title>drexel</title>
    <desc>Created with Sketch.</desc>
    <g id="drexel" stroke="none" stroke-width="1" fill="none" fill-rule="evenodd">
        <g id="drexel_BGL" transform="translate(0.000000, 0.000000)">
            <g id="drexel" transform="translate(0.000000, 22.000000)">
                <g id="g10" transform="translate(99.896155, 78.101766) scale(-1, 1) rotate(-180.000000) translate(-99.896155, -78.101766) translate(0.000000, 0.012464)" fill-rule="nonzero">
                    <g id="g12">
                        <path d="M162.798334,74.9918984 C162.582758,75.7964675 162.396258,76.4909638 162.026164,76.9615765 C161.166351,78.0452732 160.220141,78.6247125 159.209549,78.6845256 C158.635095,78.7185858 158.099685,78.5790219 157.629072,78.3846294 C159.527306,77.7320853 160.121284,76.0593958 160.640494,74.5262702 C160.953682,73.6012443 161.275178,72.6471425 161.881616,71.9202474 C162.725645,70.9092402 164.137068,70.5021789 165.404357,70.3447542 C163.658563,71.8537884 163.173412,73.6091363 162.798334,74.9918984" id="path14" fill="#EF2C30"></path>
                        <path d="M172.634264,98.5786061 C174.532498,101.69844 176.512145,104.888471 181.516091,104.36926 C180.453163,105.464587 178.798334,106.786706 176.677877,107.137277 C174.476008,107.499063 172.188158,106.738107 169.885769,104.872272 C168.840702,104.026996 168.146206,102.702801 167.339975,101.169676 C165.766143,98.1727909 163.848386,94.5432998 158.304046,92.6205584 C161.237795,91.999167 165.878293,91.5447537 168.923776,93.8845252 C170.521699,95.1127702 171.595842,96.8764254 172.634264,98.5786061" id="path16" fill="#EF2C30"></path>
                        <path d="M159.136445,84.3310467 C160.468532,84.1835908 162.120453,83.9999979 164.169466,83.3379003 C167.275178,82.3385234 169.350359,80.5100707 172.403734,76.0917946 C173.99875,73.7815143 176.458563,73.3399774 178.076423,73.3320854 C174.814949,76.5462078 173.16012,79.5235702 173.16012,82.2105898 C173.16012,82.6193126 173.199165,83.0234663 173.275177,83.420974 C173.774866,86.0037362 175.777358,87.6116281 177.211626,88.4573187 C175.330837,89.1563841 173.874139,88.7136011 171.738729,88.0336427 C169.050048,87.1783987 165.370297,86.0070591 158.953267,86.7098628 C158.067286,86.8053976 155.646517,87.6897174 154.01578,88.3127704 C155.274762,84.7675991 156.527514,84.6213894 159.136445,84.3310467" id="path18" fill="#EF2C30"></path>
                        <path d="M148.083901,102.641327 C146.927099,102.931669 145.568844,102.985252 144.157421,102.952853 C143.561782,102.899271 142.945375,102.806643 142.29117,102.665833 C142.5055,102.324816 143.003527,101.538108 143.172167,101.268533 C143.459602,101.500724 144.746414,102.547038 144.746414,102.547038 C144.746414,102.547038 145.77819,100.739769 145.945168,100.451088 C146.247141,100.603528 148.216819,101.586706 148.216819,101.586706 L148.314015,101.528139 C148.330214,101.520247 149.492,100.82575 149.492,99.4791252 C149.492,99.1285541 149.386497,98.7244004 149.188781,98.2882634 C149.629903,98.2475573 150.598542,98.3285541 151.143921,99.7599144 L151.25441,100.050257 L151.481201,99.8409113 C151.514015,99.810174 152.248802,99.1235697 152.248802,97.9717525 C152.248802,97.9343693 152.247141,97.8953247 152.245479,97.8579415 C152.205188,96.8373808 151.568844,95.808928 150.423672,94.7916903 C151.580474,94.9844213 153.93146,95.6431959 154.724814,97.723362 C154.409965,98.291171 152.461471,101.502386 148.331876,102.625127 C148.25254,102.618481 148.168221,102.621804 148.083901,102.641327" id="path20" fill="#FFFFFF"></path>
                        <path d="M142.17279,93.6315657 C142.17279,94.2886788 142.414534,94.9050859 142.872271,95.4745563 C142.435718,95.568845 141.574244,95.6091357 140.931668,94.6276196 L140.813288,94.4473497 L140.638003,94.5707141 C140.602281,94.5935594 139.813911,95.1484919 139.779851,96.0473496 C139.779851,96.0668719 139.77819,96.0863943 139.77819,96.1059166 C139.77819,96.6591876 140.08307,97.2008283 140.652541,97.7250235 C140.16739,97.9572146 139.499062,98.1665604 139.185874,97.977983 C139.073724,97.911524 139.007265,97.7802675 138.987743,97.593767 C139.250671,96.0099664 140.125438,93.1626145 142.995635,91.3923134 C142.602696,91.9360309 142.223049,92.6546187 142.174451,93.4625106 C142.174451,93.5194161 142.17279,93.5746602 142.17279,93.6315657" id="path22" fill="#FFFFFF"></path>
                        <path d="M155.200411,14.6870194 C155.200411,13.8935822 154.44901,13.8791689 151.720038,14.607684 L146.642987,15.9704254 L146.642987,18.8976527 L149.370297,18.1673516 L149.370297,15.9509861 L152.284524,15.1737899 L152.284524,18.8228448 L149.933537,19.4525436 C147.160536,20.1972996 146.456486,20.5865415 146.456486,21.3798125 L146.456486,23.9696775 C146.456486,24.7631146 147.209134,24.775908 149.933537,24.0456069 L155.008927,22.6862715 L155.008927,20.3464169 L152.284524,21.0799579 L152.284524,22.7057523 L149.370297,23.4845685 L149.370297,20.3157627 L151.720038,19.6876423 C154.44901,18.9557212 155.200411,18.5403526 155.200411,17.7471231 L155.200411,14.6870194 Z M140.20145,17.1044232 L136.02035,17.8429902 L136.02035,26.0838623 L133.106123,26.6030731 L133.106123,18.357175 L128.9217,19.0920452 L128.9217,19.8061054 L130.190651,19.5821802 L130.190651,27.117424 L128.9217,27.3379017 L128.9217,28.0520035 L135.452541,26.9012662 C138.228449,26.4083482 138.932499,26.0705289 138.932499,25.2789194 L138.932499,18.0407887 L140.20145,17.8150774 L140.20145,17.1044232 Z M122.288678,20.5607471 C122.288678,19.7670192 121.53603,19.6290753 118.763029,19.9227825 L117.023465,20.1046724 C114.25088,20.3967181 113.499478,20.6903837 113.499478,21.4804148 L113.499478,28.4266244 C113.499478,29.2153264 114.25088,29.3548902 117.023465,29.0608923 L118.763029,28.8793347 C121.53603,28.5840076 122.288678,28.293748 122.288678,27.5003108 L122.288678,20.5607471 Z M106.107162,20.5005602 L100.932915,20.6808302 C98.1615759,20.7796464 97.408928,21.019771 97.408928,21.8113806 L97.408928,28.7526057 C97.408928,29.5476213 98.1615759,29.7358663 100.932915,29.6386701 L105.962614,29.465046 L105.962614,27.1285975 L103.283902,27.2228861 L103.283902,28.8452329 L100.322739,28.9458352 L100.322739,21.4138728 L103.283902,21.3100306 L103.283902,24.962367 L101.779852,25.0160741 L101.779852,25.7299682 L106.107162,25.5792309 L106.107162,20.5005602 Z M90.7663529,20.4585249 L86.5831754,20.2375488 L86.5831754,24.6007055 L83.6706106,24.4481822 L83.6706106,20.0851916 L79.4878485,19.8645063 L79.4878485,20.5769881 L80.7567996,20.6417025 L80.7567996,27.8845268 C80.7567996,28.6750564 81.5094476,28.9279744 84.2338504,29.0741841 L86.0203509,29.1634053 C88.7476613,29.3058767 89.4974017,29.1306327 89.4974017,28.3406431 L89.4974017,21.1023463 L90.7663529,21.1688884 L90.7663529,20.4585249 Z M73.8870179,18.978608 L69.7038404,18.5403526 L69.7038404,22.9001033 L66.7933524,22.5952227 L66.7933524,18.2322322 L62.6085135,17.7940182 L62.6085135,18.5046724 L63.8774647,18.6364274 L63.8774647,26.1698436 L62.6085135,26.0382548 L62.6085135,26.7505705 L69.1410159,27.438504 C71.9173398,27.7303835 72.6180667,27.5863337 72.6180667,26.7992101 L72.6180667,24.4968634 C72.6180667,23.9207055 72.2467272,23.6515051 71.0687417,23.3951396 C72.2467272,23.3985456 72.6180667,23.1954304 72.6180667,22.6197294 L72.6180667,19.5547659 L73.8870179,19.6909237 L73.8870179,18.978608 Z M56.3003101,17.5671854 C56.3003101,16.7766559 55.5945988,16.385794 52.8215978,15.6947867 L46.2861878,14.0655864 L46.2861878,14.7762405 L47.5563851,15.091173 L47.5563851,22.6147035 L46.2861878,22.2983172 L46.2861878,23.0252123 L52.8215978,24.6492206 C55.5945988,25.3436338 56.3003101,25.3063337 56.3003101,24.5096567 L56.3003101,17.5671854 Z M45.8188981,36.7630313 C45.8188981,33.0737271 43.8537891,28.4572786 31.3911519,24.6252123 L18.1950982,19.6290753 L21.1578396,23.3008925 L21.1578396,53.3391472 L18.2908407,56.4203517 L21.0264169,59.3408085 L21.1578396,87.366976 L18.1950982,93.3362386 L33.980726,86.3526458 C41.83219,82.9208702 45.8188981,81.3844216 45.8188981,74.4124592 L45.8188981,36.7630313 Z M186.063962,24.281204 C186.063962,24.7272683 186.063962,50.3322937 186.063962,51.0317744 C186.52336,51.4907568 191.314637,56.2841107 191.314637,56.2841107 C191.314637,56.2841107 186.711522,60.8855644 186.253786,61.3412238 C186.253786,62.0440275 186.253786,85.9991671 186.253786,86.2699875 C186.338105,86.5312543 192.148697,104.325646 192.148697,104.325646 L190.245478,103.329177 C184.467285,100.298232 178.50633,97.723362 172.538729,95.5298003 C171.798542,94.4735179 170.958251,93.474141 169.877462,92.6434037 C166.470193,90.026166 161.596258,90.3588762 158.370505,90.9931441 C156.98982,90.6101743 155.61578,90.2467267 154.25254,89.8994785 C156.121699,89.1775679 158.456486,88.3385232 159.123568,88.2658337 C165.212872,87.5970902 168.566559,88.665003 171.264793,89.524816 C173.99875,90.3945979 176.155343,91.0824484 179.401865,89.1352003 L180.808718,88.2915866 L179.265624,87.7304236 C179.226579,87.7154703 175.421802,86.2928327 174.811626,83.1156781 C174.294077,80.4174435 176.226787,77.023051 180.398334,73.2947022 L181.535613,72.2787106 L180.049424,71.9476618 C179.811003,71.8957407 174.216403,70.7098632 171.112353,75.2024903 C170.417857,76.2101746 169.78525,77.0670801 169.186289,77.8002057 L169.186289,69.9472464 L171.044232,69.1248165 L169.186289,68.883072 L169.186289,30.2846098 L174.360536,28.7754925 L178.925021,67.7777761 L180.480992,67.7777761 L180.526268,20.7974657 C180.526268,20.7974657 163.867909,27.4529588 157.385666,28.4444853 L157.42471,28.4834053 C155.833018,28.8614738 142.143714,32.0933741 133.419311,33.5197499 L116.556176,35.1356585 L119.617858,38.6439035 L116.001243,53.5580464 L112.772583,38.6439035 L115.796882,35.1942255 L98.7522301,35.4604768 C94.5790215,35.4101756 83.4159896,35.2120448 76.5918984,34.4835298 L76.7019711,34.3796876 C76.7019711,34.3796876 68.318586,33.6805391 65.2340586,32.8676627 L65.2340586,52.9025947 C65.2340586,54.718171 63.7541002,55.6269976 59.6830722,55.6269976 L57.4654191,55.6269976 L57.4654191,35.25732 L60.5495312,32.05948 C60.5495312,32.05948 53.4172365,31.1052536 45.9970913,28.9261883 L49.0816187,33.1820968 L49.0816187,53.2207671 L46.2242979,56.4070599 L49.0816187,59.8566963 L49.0816187,78.434889 L45.9970913,83.4758027 L57.7412239,81.0097591 C58.0980255,79.5331237 58.6708189,77.8944944 59.585876,76.2409119 C59.4949102,76.2425734 59.4072675,76.2558652 59.3133942,76.2558652 L57.4654191,76.6417426 L57.4654191,58.4078905 L59.3133942,58.4078905 C63.5077866,58.4078905 65.2340586,59.3146403 65.2340586,62.0440275 L65.2340586,69.997506 C67.400206,68.4660419 70.1470387,67.1484926 73.6191051,66.2234667 L73.6191051,62.5777762 C73.6191051,58.3007254 68.6882641,57.499064 65.2340586,56.9653153 C69.0566961,56.3746611 73.6191051,55.5231554 73.6191051,51.5102791 L73.6191051,37.3847966 L75.2286586,35.8156585 L77.084941,38.3385245 L77.084941,53.2253362 L74.2292816,56.4070599 L77.084941,59.8566963 L77.084941,64.8751801 L78.929593,64.4307357 C80.2471423,68.7480772 82.7867061,71.8537884 85.3486998,74.0245049 L85.3486998,58.0328127 C88.0598109,58.0328127 90.4012438,58.0328127 92.1308388,61.6689497 L93.8554494,65.3017637 L95.0870174,65.3017637 L95.0870174,48.1420549 L93.8554494,48.1420549 L92.1308388,51.4566965 C90.1545149,55.3624078 88.4311504,55.3624078 85.3486998,55.3624078 L85.3486998,37.8811205 L87.6913789,37.8811205 C89.2930403,37.8811205 90.7725834,38.0419097 92.0074743,38.7360323 C94.5935594,40.180269 96.3202468,42.9595005 97.8014513,45.2053987 L100.884317,49.9057101 L102.119208,49.9057101 L100.614743,37.3424705 L102.74683,38.9096563 L110.781721,59.0193132 L109.018066,63.030528 C107.716716,62.6637575 106.422012,62.6085135 105.283071,63.1115249 C102.7406,64.2359278 101.611212,67.6107979 101.830112,73.4259587 L103.373206,73.5833834 C103.403943,73.4600189 104.019104,71.0716493 105.862095,70.1939754 L104.458564,73.3806835 L104.440704,73.3304239 L104.395428,73.5314623 L104.215158,73.9372775 L99.9692602,76.8901331 L101.254411,64.3414314 L99.8978168,64.3414314 L96.3202468,69.8986483 C92.8689489,75.355346 91.2677028,75.6714415 87.6913789,75.6714415 L87.543923,75.6714415 C89.2199355,76.7912753 90.7435076,77.5181704 91.7528534,77.9381081 L99.8978168,77.5991673 L99.9073703,77.5032172 L103.585875,77.5634456 C103.435096,79.0026979 103.392728,81.0683261 104.007474,82.8901329 C103.603736,82.8303198 103.108616,82.7522305 102.537484,82.6500499 C98.0627182,81.7366542 94.395844,80.4353043 91.3972978,78.9507768 C81.1738297,73.8949099 78.6944944,66.7169246 78.3360313,65.4853566 C78.309863,65.3715456 78.2969866,65.3117325 78.2969866,65.3117325 L78.2903407,65.3183784 C78.2874331,65.3084096 78.2857717,65.3017637 78.2857717,65.3017637 C77.5248163,65.4562808 76.7979212,65.6299049 76.096779,65.8197284 C75.897402,65.8762185 75.6992712,65.9298011 75.5028019,65.9867066 C62.9852528,69.6569038 60.2072674,79.0060209 59.64112,84.0390426 C59.4903412,85.3711297 59.4949102,86.4012439 59.5144326,86.9433 C55.9692613,87.5858753 52.3023871,88.3401847 48.5673923,89.2099666 C48.5104868,89.4629261 48.4099676,89.7503612 48.2575274,90.0797485 C48.2525429,90.092625 48.2882646,90.0714412 48.3011411,90.0681182 C43.5729999,103.008097 44.0290747,123.297609 63.8546194,153.199581 C63.8546194,153.199581 37.9007675,119.379436 46.0976105,90.689925 C46.0863955,90.3605377 46.1109023,90.0585647 46.1673924,89.7844214 C40.1788152,91.2527495 34.0407468,93.0342656 27.9319204,95.2099665 C21.5796879,97.472064 15.2664171,100.150776 9.20303196,103.329177 L7.29977136,104.325646 C7.29977136,104.325646 13.1100724,86.5312543 13.1960537,86.2699875 C13.1960537,85.9991671 13.1960537,62.0440275 13.1960537,61.3412238 C12.7385251,60.8855644 8.13536844,56.2841107 8.13536844,56.2841107 C8.13536844,56.2841107 12.9267286,51.4907568 13.3859187,51.0317744 C13.3859187,50.3322937 13.3859187,24.7272683 13.3859187,24.281204 C13.1652333,23.8916297 0,0.538683268 0,0.538683268 L2.89622423,2.33482445 C3.05036337,2.43039246 18.3378604,11.8347661 37.3685557,17.7308822 C37.7823044,16.2446517 40.4935815,6.481869 40.4935815,6.481869 L41.3827196,6.80618882 C41.644028,6.90226359 68.07518,16.3759082 100.897194,16.3759082 C133.724192,16.3759082 160.153682,6.90226359 160.418272,6.80618882 L161.305915,6.481869 C161.305915,6.481869 164.015365,16.2396258 164.429072,17.7308822 C183.349528,11.8441534 196.368842,2.46608924 196.498437,2.37052123 L199.751605,0 C199.751605,0 186.283277,23.8916297 186.063962,24.281204 L186.063962,24.281204 Z" id="path24" fill="#FCD43D"></path>
                        <polyline id="path26" fill="#FCD43D" points="127.622011 74.4124592 121.610381 59.0193132 129.645272 38.0905909 132.473517 35.2706533 134.279124 37.2726886 134.279124 53.0114213 131.421804 56.1948065 134.279124 59.6423661 134.279124 75.108617 131.945999 78.1217011 127.622011 74.4124592"></polyline>
                        <path d="M110.984421,79.0953251 C110.520454,79.5979212 109.733746,79.854619 108.647972,79.854619 C107.934369,79.854619 107.052957,78.8045671 106.336031,77.6070593 L111.487432,77.6884716 C111.494078,77.7711299 111.516923,78.5241933 110.984421,79.0953251" id="path28" fill="#FCD43D"></path>
                        <path d="M146.265002,81.6897176 L156.009965,83.3673915 C154.311107,84.0340581 153.154306,85.5057092 152.044441,89.351192 C151.388989,89.1921058 150.733537,89.038004 150.082655,88.8872252 L150.074763,88.8515035 C150.00955,88.606436 148.953267,84.7497383 146.265002,81.6897176" id="path30" fill="#FCD43D"></path>
                        <path d="M121.553891,82.4132897 L121.323361,81.9298007 C120.903008,81.0504653 120.276633,79.6498422 119.63115,78.0647956 L131.201243,79.0836948 L131.195012,79.0903407 L139.54766,80.5312545 C139.617442,82.0984403 139.528138,84.5777757 138.557837,86.5408078 C131.739976,85.338731 125.45088,84.542054 120.043195,84.0195202 L121.553891,82.4132897" id="path32" fill="#FCD43D"></path>
                        <path d="M117.151814,68.7464157 L117.20872,68.3538924 L116.926269,68.0747647 C116.817443,67.9709225 115.826373,67.0072673 114.390444,65.9281396 L116.197713,60.6633422 L120.839872,74.1997905 L119.089094,76.6903408 C117.940184,73.688887 116.916716,70.3854603 117.151814,68.7464157" id="path34" fill="#FCD43D"></path>
                        <path d="M157.088677,69.9763222 L153.516092,75.5368621 C151.314223,79.305917 147.780266,77.9576304 144.879332,77.955969 L142.537899,77.7806834 L142.537899,58.0004139 C145.252333,58.0004139 147.595427,58.0004139 149.321699,61.6348894 L151.047971,65.2726879 L152.277878,65.2726879 L152.277878,48.1129791 L151.047971,48.1129791 L149.321699,51.4242978 C147.347037,55.3283475 145.622426,55.3283475 142.537899,55.3283475 L142.537899,36.2603937 L144.879332,36.2603937 C146.485562,36.2603937 147.963859,35.5821798 149.196673,36.2733532 C151.788158,37.7204975 153.516092,40.4968214 154.992727,42.7422627 L158.078501,48.2895107 L159.310069,48.2895107 L157.60498,28.6828238 L160.802904,32.1939763 L160.802904,70.7829681 C160.762197,70.8265818 160.718584,70.8722724 160.679539,70.9175476 C159.887846,71.8683263 159.499892,73.013913 159.157628,74.0232588 C158.782966,75.1327084 158.47767,76.0236741 157.788158,76.5607457 L158.445271,69.9763222 L157.088677,69.9763222" id="path36" fill="#FCD43D"></path>
                        <polyline id="path38" fill="#FCD43D" points="83.6706106 25.1622424 86.5831754 25.3145996 86.5831754 28.4834053 83.6706106 28.3294282 83.6706106 25.1622424"></polyline>
                        <polyline id="path40" fill="#FCD43D" points="66.7933524 23.3075384 69.7038404 23.615825 69.7038404 26.7862506 66.7933524 26.4781302 66.7933524 23.3075384"></polyline>
                        <polyline id="path42" fill="#FCD43D" points="50.4722729 15.8326891 53.3844223 16.5595842 53.3844223 24.0652538 50.4722729 23.3399786 50.4722729 15.8326891"></polyline>
                        <polyline id="path44" fill="#FCD43D" points="116.415366 20.8818271 119.376113 20.5703006 119.376113 28.1039245 116.415366 28.415451 116.415366 20.8818271"></polyline>
                        <path d="M32.2510895,82.1408079 L30.1531872,82.9001018 L30.1531872,29.8513804 C34.7952224,31.1052536 38.0435297,32.609345 38.0435297,38.8414944 L38.0435297,75.108617 C38.0435297,76.9275162 36.3496149,80.6542036 32.2510895,82.1408079" id="path46" fill="#FCD43D"></path>
                        <path d="M159.287223,80.2488038 C159.811419,80.219728 160.316092,80.098025 160.802904,79.8949097 L160.802904,80.5358235 L158.784212,82.7962596 C158.187327,82.8643801 157.641948,82.9358235 157.14226,83.0396656 L157.445894,79.9891984 C158.000827,80.172376 158.620557,80.286187 159.287223,80.2488038" id="path48" fill="#FCD43D"></path>
                        <path d="M108.09304,125.056695 L108.094701,125.055033 C108.409551,125.681409 108.687017,126.325646 108.930423,126.984005 C107.199167,128.56116 101.818897,133.462925 100.851919,134.34226 C100.048596,133.161367 96.7954285,128.369675 96.7954285,128.369675 L96.3800599,127.751606 C96.3800599,127.751606 89.5929365,131.919831 88.3015554,132.713185 C87.9705066,131.895739 86.8282429,129.042987 85.9376926,126.828242 C87.5634454,125.978398 89.3092397,125.256072 91.1734141,124.69657 C96.4124586,126.620558 100.743092,128.209343 100.743092,128.209343 C100.743092,128.209343 104.96656,126.398335 108.09304,125.056695" id="path50" fill="#FCD43D"></path>
                        <path d="M96.8066435,111.067079 C97.9459996,103.992936 100.78546,99.8812021 100.78546,99.8812021 C102.474348,101.155138 104.002905,101.656488 104.002905,101.656488 C99.8508802,103.647349 96.8066435,111.067079 96.8066435,111.067079" id="path52" fill="#FCD43D"></path>
                        <path d="M89.336654,108.587744 C90.9395616,99.4093433 95.631981,95.9663527 95.631981,95.9663527 C96.6479727,97.6780869 98.6388345,98.5428843 98.6388345,98.5428843 C93.4483881,100.186498 89.336654,108.587744 89.336654,108.587744" id="path54" fill="#FCD43D"></path>
                        <path d="M104.635511,111.555553 C104.635511,111.555553 104.39709,105.663964 106.425335,102.954515 C106.425335,102.954515 106.981929,103.147661 107.640703,103.330839 C107.745792,103.96386 107.84008,104.58359 107.906539,105.174245 C106.796674,106.413705 105.420973,108.45981 104.635511,111.555553" id="path56" fill="#FCD43D"></path>
                        <path d="M117.585044,104.252542 C117.585044,104.252542 116.668325,104.716508 115.509862,105.714224 C114.890132,105.279748 114.292832,104.833227 113.726685,104.375906 C114.828242,104.388782 117.072479,104.39709 117.585044,104.252542" id="path58" fill="#FCD43D"></path>
                        <path d="M92.3173393,92.427412 C92.9923134,93.3021784 93.7403923,94.0095511 93.7403923,94.0095511 C87.4787102,94.7929364 83.0429886,103.142677 83.0429886,103.142677 C82.9570073,99.6053973 86.5752834,95.1597069 89.038004,92.552438 L92.3173393,92.427412" id="path60" fill="#FCD43D"></path>
                        <path d="M154.63551,101.869156 C152.77632,104.218481 152.678709,107.447142 152.678709,107.447142 C152.77632,106.468949 153.94766,105.295948 153.94766,105.295948 C154.147037,105.685148 155.906123,106.959084 155.906123,106.959084 C154.340183,105.00062 154.63551,101.869156 154.63551,101.869156 Z M133.863756,112.720662 L136.070609,110.775075 C136.070609,110.775075 133.625334,111.776114 131.233642,113.163445 C129.78982,114.003735 128.361783,114.985667 127.508616,115.97549 C127.508616,115.97549 129.458771,114.602697 132.319415,113.809343 C133.789405,113.400205 135.501139,113.145584 137.313392,113.311316 C137.313392,113.311316 135.263963,112.407474 133.863756,112.720662 L133.863756,112.720662 Z M111.082033,106.696155 C112.451503,111.19709 118.725646,114.785875 118.725646,114.785875 C115.496986,118.797089 108.255449,119.971752 108.255449,119.971752 C114.22305,121.144753 119.799789,118.405812 119.799789,118.405812 C114.446934,122.517546 113.35493,132.111315 113.35493,132.111315 C117.142261,122.012873 124.105916,118.306954 124.105916,118.306954 C122.345584,116.155345 124.633434,111.914016 124.633434,111.914016 C117.145168,113.757422 111.082033,106.696155 111.082033,106.696155 L111.082033,106.696155 Z M159.185043,110.964899 C156.039041,110.272064 154.869363,108.498855 154.812457,108.409551 L154.147037,107.337069 L153.48037,108.402905 C151.557629,111.484109 143.104046,111.302593 140.006642,110.974867 L137.803527,110.739353 C137.803527,110.739353 140.337691,113.272271 141.234887,114.171129 C139.119415,114.310693 136.745583,114.670817 134.233849,115.190028 L134.18982,115.167183 C132.251295,115.607058 121.538938,118.740184 112.61682,135.573828 C112.61682,135.573828 115.05711,124.861887 107.478294,119.635719 C107.478294,119.635719 113.35493,113.025542 108.781306,101.622427 C108.781306,101.622427 116.149114,111.623673 124.458148,110.106747 C124.599374,110.080579 124.740184,110.046519 124.883071,110.015781 C125.01142,109.986705 125.139353,109.957214 125.264379,109.923154 C125.24818,109.87954 125.230319,109.838834 125.207474,109.796882 C125.175075,109.743299 125.141015,109.691378 125.092416,109.642365 C124.930423,109.472064 122.159083,106.533746 122.159083,102.362199 C122.159083,100.668326 122.614743,98.77466 123.887017,96.7792291 C126.053164,93.3719603 128.719,92.7651067 131.80145,92.0639645 C133.565521,91.6647952 135.388989,91.2510881 137.173828,90.258357 C140.540806,88.3891982 141.141014,84.1524382 141.141014,81.3715452 C141.141014,80.8116283 141.113184,80.3397695 141.082447,79.92897 C145.346621,81.3910675 147.509446,86.2537881 148.25254,88.3127704 C140.647556,88.7588763 137.590858,93.9314618 137.315054,98.3983361 C137.214534,100.048596 135.281824,102.620143 134.452748,103.582552 C134.449426,103.584213 134.443195,103.588782 134.438211,103.590444 L134.444856,103.602074 C134.444856,103.602074 133.40145,104.272064 132.299893,105.330008 C132.046518,105.591275 131.806435,105.860433 131.582551,106.131254 C131.060017,106.762614 130.615573,107.396882 130.260433,107.94683 C129.843403,108.764691 129.614535,109.645688 129.737899,110.546207 C131.636134,106.70737 134.108823,105.256903 135.697193,104.709862 C135.825542,104.66791 135.943922,104.628866 136.058979,104.596467 C136.188989,104.557422 136.321907,104.525023 136.45981,104.495948 C136.602696,104.463549 136.733953,104.439042 136.84278,104.421181 C136.885147,104.416197 136.932084,104.409966 136.974451,104.401659 C137.047141,104.395428 137.112354,104.387121 137.160952,104.382137 C138.436134,104.239665 140.006642,104.320662 141.644026,104.409966 C142.807473,104.473102 143.985458,104.5379 145.127722,104.525023 C146.299062,104.513808 147.429695,104.421181 148.461886,104.161576 C151.377359,103.433019 154.318999,100.777152 156.022841,99.0101741 C156.022841,99.0571107 156.017857,99.1106933 156.017857,99.1576299 C156.017857,105.240703 157.848387,109.013081 159.185043,110.964899 L159.185043,110.964899 Z" id="path62" fill="#FCD43D"></path>
                        <path d="M104.022427,83.1500499 C103.519416,82.9910262 103.020974,82.8260854 102.537484,82.6500499 C103.108616,82.8320025 103.603736,82.9710558 104.007474,83.0775646 C104.012458,83.1004936 104.015781,83.1271209 104.022427,83.1500499" id="path64" fill="#FCD43D"></path>
                        <path d="M79.8043594,80.3767373 C79.8043594,80.7160935 79.8284508,81.0533728 79.8774643,81.3860831 C79.5642763,80.5117322 79.1713376,79.0886792 79.1713376,77.3881601 C79.1713376,75.9634457 79.4587727,74.3526461 80.2878485,72.7252318 C80.4647955,73.138939 80.953269,74.2404966 81.3765296,74.688264 C81.2353043,74.9478694 79.8043594,77.6606419 79.8043594,80.3767373" id="path66" fill="#FCD43D"></path>
                        <path d="M85.0857715,77.4338506 C85.0857715,77.4338506 85.9538919,78.6521268 86.4307351,78.7592919 C86.4307351,78.7592919 85.3486998,81.6066439 85.9991671,82.8157819 C85.9991671,82.8157819 84.4303198,80.5163012 85.0857715,77.4338506" id="path68" fill="#FCD43D"></path>
                        <path d="M90.0294889,80.6479731 C90.4091358,81.0130821 91.3241929,81.1393542 91.3241929,81.1393542 C90.9088243,81.64735 90.9412231,82.9196241 90.9412231,82.9196241 C90.5648991,82.5528536 90.0294889,80.6479731 90.0294889,80.6479731" id="path70" fill="#FCD43D"></path>
                        <path d="M119.681409,82.1179626 C119.037173,82.8058131 112.574452,89.6855637 112.176944,90.1088243 C111.703424,90.1266852 92.5428845,90.8519188 83.1484922,91.2074744 C82.1117321,91.2477651 81.1979211,91.2834868 80.4369658,91.3113165 L80.4647955,91.2951171 L69.9621997,91.7005169 L69.0550346,91.7362386 C69.0550346,91.7362386 69.1538924,91.7312542 69.9651073,91.8791254 C70.9470387,92.054411 72.9736223,92.4502573 77.140185,93.3362386 C77.0882639,93.8504649 77.0492193,94.4913787 77.0492193,95.2344732 C77.0492193,98.888471 78.0211819,104.857734 83.6319813,108.866872 C91.6618876,114.601036 101.9244,114.420766 107.469987,113.770298 C106.313185,118.25171 103.955553,119.981305 103.955553,119.981305 C105.333331,121.008512 106.433227,122.267494 107.312562,123.666041 C103.985044,124.956175 101.585044,125.960537 100.762614,126.306124 C100.647557,126.262094 98.158253,125.356591 94.2758024,123.943507 C96.2454805,123.576736 98.3368615,123.382344 100.556591,123.398543 C102.904255,123.418065 102.268326,117.369052 94.6974016,119.549737 C94.3763216,119.669779 94.0614722,119.793143 93.7466228,119.916508 C70.6741415,128.924607 66.1474542,144.903423 65.3881604,148.670817 L65.3653151,148.704877 C68.4386276,128.872686 88.8402885,118.881409 88.8402885,118.881409 C76.3675993,119.551399 72.0357199,114.430734 70.723155,109.447972 C70.000829,106.705709 70.1906525,104.007474 70.4485964,102.334785 C70.6076826,101.291379 70.7912755,100.64548 70.7912755,100.64548 C65.1268935,98.888471 62.0701957,96.052334 60.6488043,92.8087204 L60.6488043,92.8103819 C60.6488043,92.8103819 60.6342664,92.7796446 60.6130826,92.7244006 C60.0465198,91.4068513 59.7482851,90.022843 59.6539964,88.6159895 C59.6539964,88.6159895 59.6556579,88.6159895 59.6589809,88.6159895 C59.6539964,88.5918981 59.652335,88.5657299 59.649012,88.5416385 C59.6232592,88.1229469 59.6137057,87.7042553 59.6232592,87.2822408 C59.6137057,87.2855638 59.6020754,87.2872252 59.5925219,87.2905482 C59.7723765,87.0259584 60.4149518,86.1109013 61.4159902,84.9964672 C62.3667689,83.9385233 63.6373816,82.7052939 65.1430929,81.6814102 C66.8922102,80.4905484 68.9545154,79.5817218 71.1904447,79.5655224 L71.1921062,79.5638609 C83.2830716,87.9721681 101.278502,85.7736219 105.312147,85.1455846 C105.388575,85.2282429 105.46791,85.3079937 105.548907,85.3856676 C106.107162,85.903217 106.759291,86.2778795 107.509032,86.5167164 C109.097401,87.0226354 111.116093,86.9009324 113.543092,86.146623 C113.955553,86.0182741 114.18899,85.5788141 114.057733,85.1667684 C113.929384,84.7530612 113.492832,84.5225316 113.079125,84.6521266 C110.087225,85.582137 107.913185,85.4458961 106.618481,84.2417424 C105.372375,83.0832793 105.054203,81.1052939 105.054203,79.3918983 C105.054203,79.1065401 105.063756,78.8323968 105.079956,78.5661455 C105.930215,79.9601226 107.161783,81.4201433 108.647972,81.4201433 C110.202282,81.4201433 111.381929,80.9869139 112.156176,80.1349928 C113.092417,79.1048786 113.064587,77.8247125 113.050049,77.5729991 C113.035511,77.1659378 112.657526,68.3086172 107.307993,68.3086172 C105.609135,68.3086172 104.343507,69.1214936 103.451295,70.1482849 C103.691379,67.0882642 104.520454,65.1626152 105.914016,64.5441313 C108.722739,63.3013484 113.621181,67.1144324 115.57466,68.957423 C115.568014,69.0517117 115.555137,69.1360315 115.555137,69.2365507 C115.555137,72.9619919 118.728969,80.0701953 119.681409,82.1179626" id="path72" fill="#FCD43D"></path>
                        <path d="M126.903424,131.528969 C126.903424,131.528969 126.390443,126.408304 122.908408,124.190236 C124.230942,122.819104 125.493247,121.683486 126.682448,120.748907 L131.707577,117.62035 C132.418273,117.294286 133.065417,117.049218 133.636549,116.867702 C131.874555,119.132707 127.489093,125.327515 126.903424,131.528969" id="path74" fill="#FCD43D"></path>
                        <path d="M77.6124591,70.4161976 C77.2261663,70.8382121 74.3867063,74.1009327 74.2795412,78.2172358 C74.1806835,77.6656263 74.0735184,76.8415349 74.0735184,75.8388351 C74.0735184,73.625751 74.6089286,70.5898217 76.9241933,67.9484926 C76.9860832,68.462719 77.195429,69.9214936 77.6124591,70.4161976" id="path76" fill="#FCD43D"></path>
                        <path d="M65.7823452,100.731462 C65.7823452,100.731462 66.8045674,101.630319 68.7563846,102.1433 C68.7563846,102.1433 55.8704036,119.048387 63.4022829,148.670817 C63.4022829,148.670817 53.6976103,122.744338 65.7823452,100.731462" id="path78" fill="#FCD43D"></path>
                        <path d="M189.923983,89.6141203 C189.923983,89.6141203 190.783796,89.6141203 190.978604,89.6141203 C190.978604,89.3835907 190.978604,85.6743488 190.978604,85.6743488 L191.781927,85.6743488 C191.781927,85.6743488 191.781927,89.3835907 191.781927,89.6141203 C191.973412,89.6141203 192.836548,89.6141203 192.836548,89.6141203 L192.836548,90.3700912 L192.713183,90.3700912 L189.923983,90.3700912 L189.923983,89.6141203" id="path80" fill="#15366F"></path>
                        <path d="M193.496984,85.6743488 C193.496984,85.6743488 193.865,87.7545149 193.967596,88.3322927 C194.209341,87.7806832 195.257316,85.3968826 195.257316,85.3968826 C195.257316,85.3968826 196.305291,87.7773602 196.548697,88.3289698 C196.650878,87.7495305 197.01931,85.6743488 197.01931,85.6743488 L197.843816,85.6743488 L196.831148,90.8485959 C196.831148,90.8485959 195.453785,87.6863945 195.257316,87.2402886 C195.062508,87.6863945 193.685146,90.8485959 193.685146,90.8485959 L193.607056,90.4593955 L192.669569,85.6743488 L193.496984,85.6743488" id="path82" fill="#15366F"></path>
                        <path d="M38.0435297,38.8414944 C38.0435297,32.609345 34.7952224,31.1052536 30.1531872,29.8513804 L30.1531872,82.9001018 L32.2510895,82.1408079 C36.3496149,80.6542036 38.0435297,76.9275162 38.0435297,75.108617 L38.0435297,38.8414944 Z M33.980726,86.3526458 L18.1950982,93.3362386 L21.1578396,87.366976 L21.0264169,59.3408085 L18.2908407,56.4203517 L21.1578396,53.3391472 L21.1578396,23.3008925 L18.1950982,19.6290753 L31.3911519,24.6252123 C43.8537891,28.4572786 45.8188981,33.0737271 45.8188981,36.7630313 L45.8188981,74.4124592 C45.8188981,81.3844216 41.83219,82.9208702 33.980726,86.3526458 L33.980726,86.3526458 Z" id="path84" fill="#15366F"></path>
                        <path d="M53.3844223,16.5595842 L50.4722729,15.8326891 L50.4722729,23.3399786 L53.3844223,24.0652538 L53.3844223,16.5595842 Z M52.8215978,24.6492206 L46.2861878,23.0252123 L46.2861878,22.2983172 L47.5563851,22.6147035 L47.5563851,15.091173 L46.2861878,14.7762405 L46.2861878,14.0655864 L52.8215978,15.6947867 C55.5945988,16.385794 56.3003101,16.7766559 56.3003101,17.5671854 L56.3003101,24.5096567 C56.3003101,25.3063337 55.5945988,25.3436338 52.8215978,24.6492206 L52.8215978,24.6492206 Z" id="path86" fill="#15366F"></path>
                        <path d="M69.7038404,23.615825 L66.7933524,23.3075384 L66.7933524,26.4781302 L69.7038404,26.7862506 L69.7038404,23.615825 Z M72.6180667,22.6197294 C72.6180667,23.1954304 72.2467272,23.3985456 71.0687417,23.3951396 C72.2467272,23.6515051 72.6180667,23.9207055 72.6180667,24.4968634 L72.6180667,26.7992101 C72.6180667,27.5863337 71.9173398,27.7303835 69.1410159,27.438504 L62.6085135,26.7505705 L62.6085135,26.0382548 L63.8774647,26.1698436 L63.8774647,18.6364274 L62.6085135,18.5046724 L62.6085135,17.7940182 L66.7933524,18.2322322 L66.7933524,22.5952227 L69.7038404,22.9001033 L69.7038404,18.5403526 L73.8870179,18.978608 L73.8870179,19.6909237 L72.6180667,19.5547659 L72.6180667,22.6197294 L72.6180667,22.6197294 Z" id="path88" fill="#15366F"></path>
                        <path d="M86.5831754,25.3145996 L83.6706106,25.1622424 L83.6706106,28.3294282 L86.5831754,28.4834053 L86.5831754,25.3145996 Z M89.4974017,28.3406431 C89.4974017,29.1306327 88.7476613,29.3058767 86.0203509,29.1634053 L84.2338504,29.0741841 C81.5094476,28.9279744 80.7567996,28.6750564 80.7567996,27.8845268 L80.7567996,20.6417025 L79.4878485,20.5769881 L79.4878485,19.8645063 L83.6706106,20.0851916 L83.6706106,24.4481822 L86.5831754,24.6007055 L86.5831754,20.2375488 L90.7663529,20.4585249 L90.7663529,21.1688884 L89.4974017,21.1023463 L89.4974017,28.3406431 L89.4974017,28.3406431 Z" id="path90" fill="#15366F"></path>
                        <path d="M101.779852,25.0160741 L103.283902,24.962367 L103.283902,21.3100306 L100.322739,21.4138728 L100.322739,28.9458352 L103.283902,28.8452329 L103.283902,27.2228861 L105.962614,27.1285975 L105.962614,29.465046 L100.932915,29.6386701 C98.1615759,29.7358663 97.408928,29.5476213 97.408928,28.7526057 L97.408928,21.8113806 C97.408928,21.019771 98.1615759,20.7796464 100.932915,20.6808302 L106.107162,20.5005602 L106.107162,25.5792309 L101.779852,25.7299682 L101.779852,25.0160741" id="path92" fill="#15366F"></path>
                        <path d="M119.376113,20.5703006 L116.415366,20.8818271 L116.415366,28.415451 L119.376113,28.1039245 L119.376113,20.5703006 Z M118.763029,28.8793347 L117.023465,29.0608923 C114.25088,29.3548902 113.499478,29.2153264 113.499478,28.4266244 L113.499478,21.4804148 C113.499478,20.6903837 114.25088,20.3967181 117.023465,20.1046724 L118.763029,19.9227825 C121.53603,19.6290753 122.288678,19.7670192 122.288678,20.5607471 L122.288678,27.5003108 C122.288678,28.293748 121.53603,28.5840076 118.763029,28.8793347 L118.763029,28.8793347 Z" id="path94" fill="#15366F"></path>
                        <path d="M138.932499,25.2789194 C138.932499,26.0705289 138.228449,26.4083482 135.452541,26.9012662 L128.9217,28.0520035 L128.9217,27.3379017 L130.190651,27.117424 L130.190651,19.5821802 L128.9217,19.8061054 L128.9217,19.0920452 L133.106123,18.357175 L133.106123,26.6030731 L136.02035,26.0838623 L136.02035,17.8429902 L140.20145,17.1044232 L140.20145,17.8150774 L138.932499,18.0407887 L138.932499,25.2789194" id="path96" fill="#15366F"></path>
                        <path d="M151.720038,19.6876423 L149.370297,20.3157627 L149.370297,23.4845685 L152.284524,22.7057523 L152.284524,21.0799579 L155.008927,20.3464169 L155.008927,22.6862715 L149.933537,24.0456069 C147.209134,24.775908 146.456486,24.7631146 146.456486,23.9696775 L146.456486,21.3798125 C146.456486,20.5865415 147.160536,20.1972996 149.933537,19.4525436 L152.284524,18.8228448 L152.284524,15.1737899 L149.370297,15.9509861 L149.370297,18.1673516 L146.642987,18.8976527 L146.642987,15.9704254 L151.720038,14.607684 C154.44901,13.8791689 155.200411,13.8935822 155.200411,14.6870194 L155.200411,17.7471231 C155.200411,18.5403526 154.44901,18.9557212 151.720038,19.6876423" id="path98" fill="#15366F"></path>
                        <path d="M78.3116741,65.3117325 C78.3116741,65.3117325 78.3530074,65.4839813 78.4370074,65.8117325 C78.3583407,65.5689096 78.3116741,65.405034 78.2903407,65.3308713 L78.3116741,65.3117325" id="path100" fill="#15366F"></path>
                        <path d="M158.304046,92.6205584 C163.848386,94.5432998 165.766143,98.1727909 167.339975,101.169676 C168.146206,102.702801 168.840702,104.026996 169.885769,104.872272 C172.188158,106.738107 174.476008,107.499063 176.677877,107.137277 C178.798334,106.786706 180.453163,105.464587 181.516091,104.36926 C176.512145,104.888471 174.532498,101.69844 172.634264,98.5786061 C171.595842,96.8764254 170.521699,95.1127702 168.923776,93.8845252 C165.878293,91.5447537 161.237795,91.999167 158.304046,92.6205584 L158.304046,92.6205584 Z M169.877462,92.6434037 C170.958251,93.474141 171.798542,94.4735179 172.538729,95.5298003 C173.051294,96.2616798 173.516922,97.0193122 173.972997,97.7657296 C176.077254,101.22492 177.742052,103.958876 183.2731,102.462718 L185.204149,101.9406 L184.142882,103.634473 C184.031148,103.811005 181.389404,107.9406 176.942052,108.67871 C174.277877,109.123154 171.572997,108.252126 168.90093,106.089302 C167.604565,105.040911 166.802903,103.514431 165.952644,101.898232 C164.201865,98.5657296 162.215988,94.7867058 155.145167,93.3898211 L152.401242,92.8477651 L155.029695,91.885356 C155.169259,91.8350964 156.491793,91.3632376 158.370505,90.9931441 C161.596258,90.3588762 166.470193,90.026166 169.877462,92.6434037 L169.877462,92.6434037 Z" id="path102" fill="#15366F"></path>
                        <path d="M155.906123,106.959084 C155.906123,106.959084 154.147037,105.685148 153.94766,105.295948 C153.94766,105.295948 152.77632,106.468949 152.678709,107.447142 C152.678709,107.447142 152.77632,104.218481 154.63551,101.869156 C154.63551,101.869156 154.340183,105.00062 155.906123,106.959084" id="path104" fill="#15366F"></path>
                        <path d="M124.633434,111.914016 C124.633434,111.914016 122.345584,116.155345 124.105916,118.306954 C124.105916,118.306954 117.142261,122.012873 113.35493,132.111315 C113.35493,132.111315 114.446934,122.517546 119.799789,118.405812 C119.799789,118.405812 114.22305,121.144753 108.255449,119.971752 C108.255449,119.971752 115.496986,118.797089 118.725646,114.785875 C118.725646,114.785875 112.451503,111.19709 111.082033,106.696155 C111.082033,106.696155 117.145168,113.757422 124.633434,111.914016" id="path106" fill="#15366F"></path>
                        <path d="M160.802904,32.1939763 L157.60498,28.6828238 L159.310069,48.2895107 L158.078501,48.2895107 L154.992727,42.7422627 C153.516092,40.4968214 151.788158,37.7204975 149.196673,36.2733532 C147.963859,35.5821798 146.485562,36.2603937 144.879332,36.2603937 L142.537899,36.2603937 L142.537899,55.3283475 C145.622426,55.3283475 147.347037,55.3283475 149.321699,51.4242978 L151.047971,48.1129791 L152.277878,48.1129791 L152.277878,65.2726879 L151.047971,65.2726879 L149.321699,61.6348894 C147.595427,58.0004139 145.252333,58.0004139 142.537899,58.0004139 L142.537899,77.7806834 L144.879332,77.955969 C147.780266,77.9576304 151.314223,79.305917 153.516092,75.5368621 L157.088677,69.9763222 L158.445271,69.9763222 L157.788158,76.5607457 C158.47767,76.0236741 158.782966,75.1327084 159.157628,74.0232588 C159.499892,73.013913 159.887846,71.8683263 160.679539,70.9175476 C160.718584,70.8722724 160.762197,70.8265818 160.802904,70.7829681 L160.802904,32.1939763 Z M134.279124,59.6423661 L131.421804,56.1948065 L134.279124,53.0114213 L134.279124,37.2726886 L132.473517,35.2706533 L129.645272,38.0905909 L121.610381,59.0193132 L127.622011,74.4124592 L131.945999,78.1217011 L134.279124,75.108617 L134.279124,59.6423661 Z M116.197713,60.6633422 L114.390444,65.9281396 C115.826373,67.0072673 116.817443,67.9709225 116.926269,68.0747647 L117.20872,68.3538924 L117.151814,68.7464157 C116.916716,70.3854603 117.940184,73.688887 119.089094,76.6903408 L120.839872,74.1997905 L116.197713,60.6633422 Z M105.914016,64.5441313 C104.520454,65.1626152 103.691379,67.0882642 103.451295,70.1482849 C104.343507,69.1214936 105.609135,68.3086172 107.307993,68.3086172 C112.657526,68.3086172 113.035511,77.1659378 113.050049,77.5729991 C113.064587,77.8247125 113.092417,79.1048786 112.156176,80.1349928 C111.381929,80.9869139 110.202282,81.4201433 108.647972,81.4201433 C107.161783,81.4201433 105.930215,79.9601226 105.079956,78.5661455 C105.063756,78.8323968 105.054203,79.1065401 105.054203,79.3918983 C105.054203,81.1052939 105.372375,83.0832793 106.618481,84.2417424 C107.913185,85.4458961 110.087225,85.582137 113.079125,84.6521266 C113.492832,84.5225316 113.929384,84.7530612 114.057733,85.1667684 C114.18899,85.5788141 113.955553,86.0182741 113.543092,86.146623 C111.116093,86.9009324 109.097401,87.0226354 107.509032,86.5167164 C106.759291,86.2778795 106.107162,85.903217 105.548907,85.3856676 C105.46791,85.3079937 105.388575,85.2282429 105.312147,85.1455846 C101.278502,85.7736219 83.2830716,87.9721681 71.1921062,79.5638609 L71.1904447,79.5655224 C68.9545154,79.5817218 66.8922102,80.4905484 65.1430929,81.6814102 C63.6373816,82.7052939 62.3667689,83.9385233 61.4159902,84.9964672 C60.4149518,86.1109013 59.7723765,87.0259584 59.5925219,87.2905482 C59.6020754,87.2872252 59.6137057,87.2855638 59.6232592,87.2822408 C59.6137057,87.7042553 59.6232592,88.1229469 59.649012,88.5416385 C59.652335,88.5657299 59.6539964,88.5918981 59.6539964,88.6159895 C59.9800608,93.5227391 62.7837991,98.1615759 70.7912755,100.64548 C70.7912755,100.64548 70.6076826,101.291379 70.4485964,102.334785 C70.1906525,104.007474 70.000829,106.705709 70.723155,109.447972 C72.0357199,114.430734 76.3675993,119.551399 88.8402885,118.881409 C88.8402885,118.881409 68.4386276,128.872686 65.3653151,148.704877 C65.3379008,148.883485 65.3084096,149.060432 65.2843182,149.239041 C65.25815,149.402696 65.2485965,149.488677 65.2485965,149.488677 C65.25815,149.404358 65.2714418,149.323361 65.2843182,149.239041 C65.305502,149.104046 65.3395622,148.911315 65.3881604,148.670817 C66.1474542,144.903423 70.6741415,128.924607 93.7466228,119.916508 C94.0614722,119.793143 94.3763216,119.669779 94.6974016,119.549737 C102.268326,117.369052 102.904255,123.418065 100.556591,123.398543 C98.3368615,123.382344 96.2454805,123.576736 94.2758024,123.943507 C98.158253,125.356591 100.647557,126.262094 100.762614,126.306124 C101.585044,125.960537 103.985044,124.956175 107.312562,123.666041 C106.433227,122.267494 105.333331,121.008512 103.955553,119.981305 C103.955553,119.981305 106.313185,118.25171 107.469987,113.770298 C101.9244,114.420766 91.6618876,114.601036 83.6319813,108.866872 C78.0211819,104.857734 77.0492193,98.888471 77.0492193,95.2344732 C77.0492193,94.4913787 77.0882639,93.8504649 77.140185,93.3362386 C72.9736223,92.4502573 70.9470387,92.054411 69.9651073,91.8791254 C69.1538924,91.7312542 69.0550346,91.7362386 69.0550346,91.7362386 L69.9621997,91.7005169 L80.4647955,91.2951171 L80.4369658,91.3113165 C81.1979211,91.2834868 82.1117321,91.2477651 83.1484922,91.2074744 C92.5428845,90.8519188 111.703424,90.1266852 112.176944,90.1088243 C112.574452,89.6855637 119.037173,82.8058131 119.681409,82.1179626 C118.728969,80.0701953 115.555137,72.9619919 115.555137,69.2365507 C115.555137,69.1360315 115.568014,69.0517117 115.57466,68.957423 C113.621181,67.1144324 108.722739,63.3013484 105.914016,64.5441313 L105.914016,64.5441313 Z M106.336031,77.6070593 C107.052957,78.8045671 107.934369,79.854619 108.647972,79.854619 C109.733746,79.854619 110.520454,79.5979212 110.984421,79.0953251 C111.516923,78.5241933 111.494078,77.7711299 111.487432,77.6884716 L106.336031,77.6070593 Z M90.0294889,80.6479731 C90.0294889,80.6479731 90.5648991,82.5528536 90.9412231,82.9196241 C90.9412231,82.9196241 90.9088243,81.64735 91.3241929,81.1393542 C91.3241929,81.1393542 90.4091358,81.0130821 90.0294889,80.6479731 L90.0294889,80.6479731 Z M85.0857715,77.4338506 C84.4303198,80.5163012 85.9991671,82.8157819 85.9991671,82.8157819 C85.3486998,81.6066439 86.4307351,78.7592919 86.4307351,78.7592919 C85.9538919,78.6521268 85.0857715,77.4338506 85.0857715,77.4338506 L85.0857715,77.4338506 Z M80.2878485,72.7252318 C79.4587727,74.3526461 79.1713376,75.9634457 79.1713376,77.3881601 C79.1713376,79.0886792 79.5642763,80.5117322 79.8774643,81.3860831 C79.8284508,81.0533728 79.8043594,80.7160935 79.8043594,80.3767373 C79.8043594,77.6606419 81.2353043,74.9478694 81.3765296,74.688264 C80.953269,74.2404966 80.4647955,73.138939 80.2878485,72.7252318 L80.2878485,72.7252318 Z M76.9241933,67.9484926 C74.6089286,70.5898217 74.0735184,73.625751 74.0735184,75.8388351 C74.0735184,76.8415349 74.1806835,77.6656263 74.2795412,78.2172358 C74.3867063,74.1009327 77.2261663,70.8382121 77.6124591,70.4161976 C77.195429,69.9214936 76.9860832,68.462719 76.9241933,67.9484926 L76.9241933,67.9484926 Z M63.4022829,148.670817 C55.8704036,119.048387 68.7563846,102.1433 68.7563846,102.1433 C66.8045674,101.630319 65.7823452,100.731462 65.7823452,100.731462 C53.6976103,122.744338 63.4022829,148.670817 63.4022829,148.670817 L63.4022829,148.670817 Z M88.3015554,132.713185 C89.5929365,131.919831 96.3800599,127.751606 96.3800599,127.751606 L96.7954285,128.369675 C96.7954285,128.369675 100.048596,133.161367 100.851919,134.34226 C101.818897,133.462925 107.199167,128.56116 108.930423,126.984005 C108.687017,126.325646 108.409551,125.681409 108.094701,125.055033 L108.09304,125.056695 C104.96656,126.398335 100.743092,128.209343 100.743092,128.209343 C100.743092,128.209343 96.4124586,126.620558 91.1734141,124.69657 C89.3092397,125.256072 87.5634454,125.978398 85.9376926,126.828242 C86.8282429,129.042987 87.9705066,131.895739 88.3015554,132.713185 Z M113.726685,104.375906 C114.292832,104.833227 114.890132,105.279748 115.509862,105.714224 C116.668325,104.716508 117.585044,104.252542 117.585044,104.252542 C117.072479,104.39709 114.828242,104.388782 113.726685,104.375906 L113.726685,104.375906 Z M104.635511,111.555553 C105.420973,108.45981 106.796674,106.413705 107.906539,105.174245 C107.84008,104.58359 107.745792,103.96386 107.640703,103.330839 C106.981929,103.147661 106.425335,102.954515 106.425335,102.954515 C104.39709,105.663964 104.635511,111.555553 104.635511,111.555553 L104.635511,111.555553 Z M96.8066435,111.067079 C96.8066435,111.067079 99.8508802,103.647349 104.002905,101.656488 C104.002905,101.656488 102.474348,101.155138 100.78546,99.8812021 C100.78546,99.8812021 97.9459996,103.992936 96.8066435,111.067079 L96.8066435,111.067079 Z M93.7403923,94.0095511 C93.7403923,94.0095511 92.9923134,93.3021784 92.3173393,92.427412 L89.038004,92.552438 C86.5752834,95.1597069 82.9570073,99.6053973 83.0429886,103.142677 C83.0429886,103.142677 87.4787102,94.7929364 93.7403923,94.0095511 Z M89.336654,108.587744 C89.336654,108.587744 93.4483881,100.186498 98.6388345,98.5428843 C98.6388345,98.5428843 96.6479727,97.6780869 95.631981,95.9663527 C95.631981,95.9663527 90.9395616,99.4093433 89.336654,108.587744 Z M139.54766,80.5312545 L131.195012,79.0903407 L131.201243,79.0836948 L119.63115,78.0647956 C120.276633,79.6498422 120.903008,81.0504653 121.323361,81.9298007 L121.553891,82.4132897 L120.043195,84.0195202 L112.878086,91.6485958 L94.8515033,92.3318772 C99.2211813,96.5894057 103.371545,98.9840058 106.824504,100.308201 C106.894286,100.333954 106.962406,100.358461 107.028865,100.382967 C106.563237,98.4809944 105.9352,96.4253351 105.089925,94.1864982 C105.089925,94.1864982 106.903839,97.6731024 110.5271,101.435927 C113.528554,102.117131 116.100516,102.144961 117.985875,101.98089 C118.461056,101.919416 118.890963,101.852957 119.277256,101.789406 C119.877463,99.5405998 121.083278,97.9277234 121.962614,96.993144 C122.14413,96.6446497 122.338938,96.2907556 122.564483,95.9368616 C125.07954,91.987952 128.321492,91.2510881 131.454618,90.5387309 C133.112769,90.1624069 134.824503,89.771545 136.412873,88.8905481 C137.399374,88.3435077 138.082655,87.5032169 138.557837,86.5408078 C139.528138,84.5777757 139.617442,82.0984403 139.54766,80.5312545 L139.54766,80.5312545 Z M112.61682,135.573828 C121.538938,118.740184 132.251295,115.607058 134.18982,115.167183 L134.233849,115.190028 C136.745583,114.670817 139.119415,114.310693 141.234887,114.171129 C140.337691,113.272271 137.803527,110.739353 137.803527,110.739353 L140.006642,110.974867 C143.104046,111.302593 151.557629,111.484109 153.48037,108.402905 L154.147037,107.337069 L154.812457,108.409551 C154.869363,108.498855 156.039041,110.272064 159.185043,110.964899 C157.848387,109.013081 156.017857,105.240703 156.017857,99.1576299 C156.017857,99.1106933 156.022841,99.0571107 156.022841,99.0101741 C154.318999,100.777152 151.377359,103.433019 148.461886,104.161576 C147.429695,104.421181 146.299062,104.513808 145.127722,104.525023 C143.985458,104.5379 142.807473,104.473102 141.644026,104.409966 C139.305916,104.281617 137.089509,104.159914 135.697193,104.709862 C134.108823,105.256903 131.636134,106.70737 129.737899,110.546207 C129.614535,109.645688 129.843403,108.764691 130.260433,107.94683 C130.615573,107.396882 131.060017,106.762614 131.582551,106.131254 C131.806435,105.860433 132.046518,105.591275 132.299893,105.330008 C133.40145,104.272064 134.444856,103.602074 134.444856,103.602074 L134.438211,103.590444 C134.443195,103.588782 134.449426,103.584213 134.452748,103.582552 C135.281824,102.620143 137.214534,100.048596 137.315054,98.3983361 C137.590858,93.9314618 140.647556,88.7588763 148.25254,88.3127704 C147.509446,86.2537881 145.346621,81.3910675 141.082447,79.92897 C141.113184,80.3397695 141.141014,80.8116283 141.141014,81.3715452 C141.141014,84.1524382 140.540806,88.3891982 137.173828,90.258357 C135.388989,91.2510881 133.565521,91.6647952 131.80145,92.0639645 C128.719,92.7651067 126.053164,93.3719603 123.887017,96.7792291 C122.614743,98.77466 122.159083,100.668326 122.159083,102.362199 C122.159083,106.533746 124.930423,109.472064 125.092416,109.642365 C125.141015,109.691378 125.175075,109.743299 125.207474,109.796882 C125.230319,109.838834 125.24818,109.87954 125.264379,109.923154 C125.139353,109.957214 125.01142,109.986705 124.883071,110.015781 C124.740184,110.046519 124.599374,110.080579 124.458148,110.106747 C116.149114,111.623673 108.781306,101.622427 108.781306,101.622427 C113.35493,113.025542 107.478294,119.635719 107.478294,119.635719 C115.05711,124.861887 112.61682,135.573828 112.61682,135.573828 L112.61682,135.573828 Z M126.903424,131.528969 C127.489093,125.327515 131.874555,119.132707 133.636549,116.867702 C133.065417,117.049218 132.418273,117.294286 131.707577,117.62035 L126.682448,120.748907 C125.493247,121.683486 124.230942,122.819104 122.908408,124.190236 C126.390443,126.408304 126.903424,131.528969 126.903424,131.528969 L126.903424,131.528969 Z M150.423672,94.7916903 C151.568844,95.808928 152.205188,96.8373808 152.245479,97.8579415 C152.247141,97.8953247 152.248802,97.9343693 152.248802,97.9717525 C152.248802,99.1235697 151.514015,99.810174 151.481201,99.8409113 L151.25441,100.050257 L151.143921,99.7599144 C150.598542,98.3285541 149.629903,98.2475573 149.188781,98.2882634 C149.386497,98.7244004 149.492,99.1285541 149.492,99.4791252 C149.492,100.82575 148.330214,101.520247 148.314015,101.528139 L148.216819,101.586706 C148.216819,101.586706 146.247141,100.603528 145.945168,100.451088 C145.77819,100.739769 144.746414,102.547038 144.746414,102.547038 C144.746414,102.547038 143.459602,101.500724 143.172167,101.268533 C143.003527,101.538108 142.5055,102.324816 142.29117,102.665833 C142.945375,102.806643 143.561782,102.899271 144.157421,102.952853 C145.568844,102.985252 146.927099,102.931669 148.083901,102.641327 C148.168221,102.621804 148.25254,102.618481 148.331876,102.625127 C152.461471,101.502386 154.409965,98.291171 154.724814,97.723362 C153.93146,95.6431959 151.580474,94.9844213 150.423672,94.7916903 L150.423672,94.7916903 Z M139.185874,97.977983 C139.499062,98.1665604 140.16739,97.9572146 140.652541,97.7250235 C140.08307,97.2008283 139.77819,96.6591876 139.77819,96.1059166 C139.77819,96.0863943 139.779851,96.0668719 139.779851,96.0473496 C139.813911,95.1484919 140.602281,94.5935594 140.638003,94.5707141 L140.813288,94.4473497 L140.931668,94.6276196 C141.574244,95.6091357 142.435718,95.568845 142.872271,95.4745563 C142.414534,94.9050859 142.17279,94.2886788 142.17279,93.6315657 C142.17279,93.5746602 142.174451,93.5194161 142.174451,93.4625106 C142.223049,92.6546187 142.602696,91.9360309 142.995635,91.3923134 C140.125438,93.1626145 139.250671,96.0099664 138.987743,97.593767 C139.007265,97.7802675 139.073724,97.911524 139.185874,97.977983 L139.185874,97.977983 Z M158.784212,82.7962596 L160.802904,80.5358235 L160.802904,79.8949097 C160.316092,80.098025 159.811419,80.219728 159.287223,80.2488038 C158.620557,80.286187 158.000827,80.172376 157.445894,79.9891984 L157.14226,83.0396656 C157.641948,82.9358235 158.187327,82.8643801 158.784212,82.7962596 L158.784212,82.7962596 Z M154.01578,88.3127704 C155.646517,87.6897174 158.067286,86.8053976 158.953267,86.7098628 C165.370297,86.0070591 169.050048,87.1783987 171.738729,88.0336427 C173.874139,88.7136011 175.330837,89.1563841 177.211626,88.4573187 C175.777358,87.6116281 173.774866,86.0037362 173.275177,83.420974 C173.199165,83.0234663 173.16012,82.6193126 173.16012,82.2105898 C173.16012,79.5235702 174.814949,76.5462078 178.076423,73.3320854 C176.458563,73.3399774 173.99875,73.7815143 172.403734,76.0917946 C169.350359,80.5100707 167.275178,82.3385234 164.169466,83.3379003 C162.120453,83.9999979 160.468532,84.1835908 159.136445,84.3310467 C156.527514,84.6213894 155.274762,84.7675991 154.01578,88.3127704 L154.01578,88.3127704 Z M162.026164,76.9615765 C162.396258,76.4909638 162.582758,75.7964675 162.798334,74.9918984 C163.173412,73.6091363 163.658563,71.8537884 165.404357,70.3447542 C164.137068,70.5021789 162.725645,70.9092402 161.881616,71.9202474 C161.275178,72.6471425 160.953682,73.6012443 160.640494,74.5262702 C160.121284,76.0593958 159.527306,77.7320853 157.629072,78.3846294 C158.099685,78.5790219 158.635095,78.7185858 159.209549,78.6845256 C160.220141,78.6247125 161.166351,78.0452732 162.026164,76.9615765 L162.026164,76.9615765 Z M178.925021,67.7777761 L174.360536,28.7754925 L169.186289,30.2846098 L169.186289,68.883072 L171.044232,69.1248165 L169.186289,69.9472464 L169.186289,77.8002057 C169.78525,77.0670801 170.417857,76.2101746 171.112353,75.2024903 C174.216403,70.7098632 179.811003,71.8957407 180.049424,71.9476618 L181.535613,72.2787106 L180.398334,73.2947022 C176.226787,77.023051 174.294077,80.4174435 174.811626,83.1156781 C175.421802,86.2928327 179.226579,87.7154703 179.265624,87.7304236 L180.808718,88.2915866 L179.401865,89.1352003 C176.155343,91.0824484 173.99875,90.3945979 171.264793,89.524816 C168.566559,88.665003 165.212872,87.5970902 159.123568,88.2658337 C158.456486,88.3385232 156.121699,89.1775679 154.25254,89.8994785 C153.822634,90.0635492 153.41848,90.2226353 153.066663,90.3651068 L151.585043,90.9590839 L152.023257,89.4226354 C152.029903,89.3981286 152.037795,89.3756987 152.044441,89.351192 C153.154306,85.5057092 154.311107,84.0340581 156.009965,83.3673915 L146.265002,81.6897176 C148.953267,84.7497383 150.00955,88.606436 150.074763,88.8515035 L150.082655,88.8872252 L150.336029,89.834681 L149.318376,89.834681 C147.244856,89.834681 145.583382,90.1852522 144.249633,90.7447537 L144.322738,90.8618877 C144.3082,90.8747641 142.891793,92.0801638 142.813704,93.5032168 C142.773413,94.1524379 143.013496,94.7397692 143.54226,95.2992707 L143.964275,95.7391461 L143.402696,95.9808906 C142.839872,96.2276196 141.635718,96.3426767 140.723984,95.3578377 C140.576113,95.5331233 140.423673,95.7794369 140.414119,96.0764254 C140.414119,96.0863943 140.414119,96.0942863 140.414119,96.1042551 C140.414119,96.5291772 140.706123,96.9802676 141.285562,97.4442343 L141.770298,97.8355116 L141.230318,98.1453766 C140.972374,98.291171 139.667702,98.9889903 138.876009,98.5329155 C138.773828,99.943092 137.855448,101.583383 137.005189,102.823258 C138.33063,102.675387 139.852541,102.743507 141.436341,102.83115 L143.016403,100.3244 C143.016403,100.3244 144.12793,101.22492 144.566144,101.583383 C144.876009,101.041327 145.690547,99.6137047 145.690547,99.6137047 C145.690547,99.6137047 147.803112,100.668326 148.173205,100.854826 C148.43281,100.647142 148.856071,100.201036 148.856071,99.4886787 C148.856071,99.1576299 148.763444,98.770091 148.521699,98.3223236 L148.26874,97.859603 L148.773413,97.7104856 C149.383589,97.5318771 150.603527,97.6033205 151.396881,98.8577338 C151.50903,98.6272042 151.612873,98.338523 151.612873,97.970091 C151.612873,97.9376923 151.612873,97.903632 151.60955,97.8695718 C151.564275,96.9104856 150.839041,95.8625106 149.513184,94.835304 L148.447348,94.0095511 L149.797296,94.0726872 C149.973828,94.082656 154.1001,94.3210776 155.313807,97.4766331 C155.906123,96.8373808 156.264586,96.4012437 156.275801,96.3879519 L157.846725,94.4506726 L157.664794,96.9366539 C156.923361,107.127723 161.53146,111.385252 161.580058,111.427204 L163.226995,112.903839 L161.020141,112.793351 C157.205811,112.601866 155.096569,111.026789 154.130837,110.030319 C151.447141,112.696155 145.2947,112.834057 141.961783,112.683279 C142.782966,113.504047 144.944129,115.66521 144.944129,115.66521 L143.055448,115.66521 C140.934991,115.66521 138.424919,115.976736 135.7055,116.497609 C133.518169,119.335407 127.29927,128.366767 127.419311,139.028449 C127.419311,139.028449 125.728346,127.418896 121.720869,125.477048 C118.095947,129.545999 114.112977,135.42305 110.139146,143.918584 C110.139146,143.918584 111.542676,135.875801 109.465833,128.616404 L100.569468,136.716092 L100.061472,135.969675 C100.061472,135.969675 96.6155739,130.889716 95.922739,129.869156 C94.8369654,130.534161 87.5406001,135.017234 87.5406001,135.017234 C87.5406001,135.017234 85.5547227,130.07684 84.5565919,127.597505 C69.6814105,136.378813 65.1464158,155.878293 65.1464158,155.878293 C39.601162,133.592935 29.6680366,113.807681 27.954641,97.2157816 C27.9108197,96.4481804 27.9059598,95.7877442 27.9319204,95.2099665 C34.0602276,93.0276197 40.222595,91.2398731 46.2326053,89.7682221 C46.2031141,90.0519188 46.1628234,90.3522303 46.0976105,90.689925 C37.9007675,119.379436 63.8546194,153.199581 63.8546194,153.199581 C44.0290747,123.297609 43.5293862,103.019312 48.2575274,90.0797485 C48.304464,89.7860829 48.3871224,89.5003093 48.4992719,89.226166 C52.2571119,88.3501536 55.946416,87.5908597 59.5144326,86.9433 C59.4949102,86.4012439 59.4903412,85.3711297 59.64112,84.0390426 C60.2072674,79.0060209 62.9852528,69.6569038 75.5028019,65.9867066 C75.6992712,65.9298011 75.897402,65.8762185 76.096779,65.8197284 C76.7979212,65.6299049 77.5248163,65.4562808 78.2857717,65.3017637 C78.2857717,65.3017637 78.2874331,65.3084096 78.2903407,65.3183784 C78.2969866,65.3441313 78.3115245,65.4010368 78.3360313,65.4853566 C78.6944944,66.7169246 81.1738297,73.8949099 91.3972978,78.9507768 C94.395844,80.4353043 98.0627182,81.7366542 102.537484,82.6500499 C103.020974,82.7489076 103.519416,82.8415348 104.022427,82.930839 C104.015781,82.9179626 104.012458,82.9030094 104.007474,82.8901329 C103.392728,81.0683261 103.435096,79.0026979 103.585875,77.5634456 L99.9073703,77.5032172 L99.8978168,77.5991673 L91.7528534,77.9381081 C90.7435076,77.5181704 89.2199355,76.7912753 87.543923,75.6714415 L87.6913789,75.6714415 C91.2677028,75.6714415 92.8689489,75.355346 96.3202468,69.8986483 L99.8978168,64.3414314 L101.254411,64.3414314 L99.9692602,76.8901331 L104.215158,73.9372775 L104.395428,73.5314623 L104.440704,73.3304239 L104.458564,73.3806835 L105.862095,70.1939754 C104.019104,71.0716493 103.403943,73.4600189 103.373206,73.5833834 L101.830112,73.4259587 C101.611212,67.6107979 102.7406,64.2359278 105.283071,63.1115249 C106.422012,62.6085135 107.716716,62.6637575 109.018066,63.030528 L110.781721,59.0193132 L102.74683,38.9096563 L100.614743,37.3424705 L102.119208,49.9057101 L100.884317,49.9057101 L97.8014513,45.2053987 C96.3202468,42.9595005 94.5935594,40.180269 92.0074743,38.7360323 C90.7725834,38.0419097 89.2930403,37.8811205 87.6913789,37.8811205 L85.3486998,37.8811205 L85.3486998,55.3624078 C88.4311504,55.3624078 90.1545149,55.3624078 92.1308388,51.4566965 L93.8554494,48.1420549 L95.0870174,48.1420549 L95.0870174,65.3017637 L93.8554494,65.3017637 L92.1308388,61.6689497 C90.4012438,58.0328127 88.0598109,58.0328127 85.3486998,58.0328127 L85.3486998,74.0245049 C82.7867061,71.8537884 80.2471423,68.7480772 78.929593,64.4307357 L77.084941,64.8751801 L77.084941,59.8566963 L74.2292816,56.4070599 L77.084941,53.2253362 L77.084941,38.3385245 L75.2286586,35.8156585 L73.6191051,37.3847966 L73.6191051,51.5102791 C73.6191051,55.5231554 69.0566961,56.3746611 65.2340586,56.9653153 C68.6882641,57.499064 73.6191051,58.3007254 73.6191051,62.5777762 L73.6191051,66.2234667 C70.1470387,67.1484926 67.400206,68.4660419 65.2340586,69.997506 L65.2340586,62.0440275 C65.2340586,59.3146403 63.5077866,58.4078905 59.3133942,58.4078905 L57.4654191,58.4078905 L57.4654191,76.6417426 L59.3133942,76.2558652 C59.4072675,76.2558652 59.4949102,76.2425734 59.585876,76.2409119 C58.6708189,77.8944944 58.0980255,79.5331237 57.7412239,81.0097591 L45.9970913,83.4758027 L49.0816187,78.434889 L49.0816187,59.8566963 L46.2242979,56.4070599 L49.0816187,53.2207671 L49.0816187,33.1820968 L45.9970913,28.9261883 C53.4172365,31.1052536 60.5495312,32.05948 60.5495312,32.05948 L57.4654191,35.25732 L57.4654191,55.6269976 L59.6830722,55.6269976 C63.7541002,55.6269976 65.2340586,54.718171 65.2340586,52.9025947 L65.2340586,32.8676627 C68.318586,33.6805391 76.7019711,34.3796876 76.7019711,34.3796876 L76.5918984,34.4835298 C83.4159896,35.2120448 94.5790215,35.4101756 98.7522301,35.4604768 L115.796882,35.1942255 L112.772583,38.6439035 L116.001243,53.5580464 L119.617858,38.6439035 L116.556176,35.1356585 L133.419311,33.5197499 C142.143714,32.0933741 155.833018,28.8614738 157.42471,28.4834053 L157.385666,28.4444853 C163.867909,27.4529588 180.526268,20.7974657 180.526268,20.7974657 L180.480992,67.7777761 L178.925021,67.7777761 L178.925021,67.7777761 Z" id="path108" fill="#15366F"></path>
                        <path d="M133.863756,112.720662 C135.263963,112.407474 137.313392,113.311316 137.313392,113.311316 C135.501139,113.145584 133.789405,113.400205 132.319415,113.809343 C129.458771,114.602697 127.508616,115.97549 127.508616,115.97549 C128.361783,114.985667 129.78982,114.003735 131.233642,113.163445 C133.625334,111.776114 136.070609,110.775075 136.070609,110.775075 L133.863756,112.720662" id="path110" fill="#15366F"></path>
                        <path d="M65.3632632,149.239041 C65.3219298,149.407926 65.2792632,149.570156 65.2485965,149.739041 C65.2485965,149.739041 65.2792632,149.566828 65.3632632,149.239041" id="path112" fill="#15366F"></path>
                    </g>
                </g>
            </g>
        </g>
    </g>
</svg>